<?xml version="1.0" encoding="UTF-8" standalone="no"?>
<!DOCTYPE svg PUBLIC "-//W3C//DTD SVG 1.1//EN"
 "http://www.w3.org/Graphics/SVG/1.1/DTD/svg11.dtd">
<!-- Generated by graphviz version 2.26.3 (20100126.1600)
 -->
<!-- Title: _anonymous_0 Pages: 1 -->
<svg width="330pt" height="313pt"
 viewBox="0.00 0.00 330.08 313.08" xmlns="http://www.w3.org/2000/svg" xmlns:xlink="http://www.w3.org/1999/xlink">
<g id="graph1" class="graph" transform="scale(1 1) rotate(0) translate(4 309.077)">
<title>_anonymous_0</title>
<polygon fill="white" stroke="white" points="-4,5 -4,-309.077 327.077,-309.077 327.077,5 -4,5"/>
<!-- 0 -->
<g id="node1" class="node"><title>0</title>
<ellipse fill="none" stroke="black" cx="161.039" cy="-152.539" rx="27" ry="18.3848"/>
<text text-anchor="middle" x="161.039" y="-148.939" font-family="Times Roman,serif" font-size="14.00">0</text>
</g>
<!-- 1 -->
<g id="node3" class="node"><title>1</title>
<ellipse fill="none" stroke="black" cx="188.592" cy="-219.058" rx="27" ry="18.3848"/>
<text text-anchor="middle" x="188.592" y="-215.458" font-family="Times Roman,serif" font-size="14.00">1</text>
</g>
<!-- 0&#45;&#45;1 -->
<g id="edge2" class="edge"><title>0&#45;&#45;1</title>
<path fill="none" stroke="black" d="M168.422,-170.365C172.376,-179.909 177.231,-191.631 181.188,-201.183"/>
</g>
<!-- 4 -->
<g id="node5" class="node"><title>4</title>
<ellipse fill="none" stroke="black" cx="89.0387" cy="-152.539" rx="27" ry="18.3848"/>
<text text-anchor="middle" x="89.0387" y="-148.939" font-family="Times Roman,serif" font-size="14.00">4</text>
</g>
<!-- 0&#45;&#45;4 -->
<g id="edge4" class="edge"><title>0&#45;&#45;4</title>
<path fill="none" stroke="black" d="M133.819,-152.539C128.084,-152.539 122.033,-152.539 116.297,-152.539"/>
</g>
<!-- 6 -->
<g id="node7" class="node"><title>6</title>
<ellipse fill="none" stroke="black" cx="161.039" cy="-80.5387" rx="27" ry="18.3848"/>
<text text-anchor="middle" x="161.039" y="-76.9387" font-family="Times Roman,serif" font-size="14.00">6</text>
</g>
<!-- 0&#45;&#45;6 -->
<g id="edge6" class="edge"><title>0&#45;&#45;6</title>
<path fill="none" stroke="black" d="M161.039,-133.997C161.039,-123.33 161.039,-109.966 161.039,-99.2678"/>
</g>
<!-- 9 -->
<g id="node9" class="node"><title>9</title>
<ellipse fill="none" stroke="black" cx="227.558" cy="-124.985" rx="27" ry="18.3848"/>
<text text-anchor="middle" x="227.558" y="-121.385" font-family="Times Roman,serif" font-size="14.00">9</text>
</g>
<!-- 0&#45;&#45;9 -->
<g id="edge8" class="edge"><title>0&#45;&#45;9</title>
<path fill="none" stroke="black" d="M184.304,-142.902C190.748,-140.233 197.744,-137.335 204.193,-134.663"/>
</g>
<!-- 2 -->
<g id="node11" class="node"><title>2</title>
<ellipse fill="none" stroke="black" cx="294.077" cy="-207.645" rx="27" ry="18.3848"/>
<text text-anchor="middle" x="294.077" y="-204.045" font-family="Times Roman,serif" font-size="14.00">2</text>
</g>
<!-- 1&#45;&#45;2 -->
<g id="edge10" class="edge"><title>1&#45;&#45;2</title>
<path fill="none" stroke="black" d="M215.483,-216.148C231.354,-214.431 251.373,-212.265 267.235,-210.549"/>
</g>
<!-- 5 -->
<g id="node13" class="node"><title>5</title>
<ellipse fill="none" stroke="black" cx="216.145" cy="-285.577" rx="27" ry="18.3848"/>
<text text-anchor="middle" x="216.145" y="-281.977" font-family="Times Roman,serif" font-size="14.00">5</text>
</g>
<!-- 1&#45;&#45;5 -->
<g id="edge12" class="edge"><title>1&#45;&#45;5</title>
<path fill="none" stroke="black" d="M195.976,-236.884C199.929,-246.428 204.785,-258.151 208.741,-267.702"/>
</g>
<!-- 7 -->
<g id="node15" class="node"><title>7</title>
<ellipse fill="none" stroke="black" cx="105.932" cy="-285.577" rx="27" ry="18.3848"/>
<text text-anchor="middle" x="105.932" y="-281.977" font-family="Times Roman,serif" font-size="14.00">7</text>
</g>
<!-- 1&#45;&#45;7 -->
<g id="edge14" class="edge"><title>1&#45;&#45;7</title>
<path fill="none" stroke="black" d="M171.062,-233.165C157.034,-244.454 137.458,-260.207 123.437,-271.491"/>
</g>
<!-- 4&#45;&#45;5 -->
<g id="edge28" class="edge"><title>4&#45;&#45;5</title>
<path fill="none" stroke="black" d="M103.868,-168.06C128.229,-193.558 176.461,-244.041 201.016,-269.742"/>
</g>
<!-- 8 -->
<g id="node20" class="node"><title>8</title>
<ellipse fill="none" stroke="black" cx="28" cy="-207.645" rx="27" ry="18.3848"/>
<text text-anchor="middle" x="28" y="-204.045" font-family="Times Roman,serif" font-size="14.00">8</text>
</g>
<!-- 4&#45;&#45;8 -->
<g id="edge30" class="edge"><title>4&#45;&#45;8</title>
<path fill="none" stroke="black" d="M72.6814,-167.306C63.9237,-175.213 53.1669,-184.924 44.4024,-192.837"/>
</g>
<!-- 10 -->
<g id="node27" class="node"><title>10</title>
<ellipse fill="none" stroke="black" cx="105.932" cy="-19.5" rx="27" ry="18.3848"/>
<text text-anchor="middle" x="105.932" y="-15.9" font-family="Times Roman,serif" font-size="14.00">10</text>
</g>
<!-- 6&#45;&#45;10 -->
<g id="edge36" class="edge"><title>6&#45;&#45;10</title>
<path fill="none" stroke="black" d="M146.56,-64.5015C138.524,-55.6004 128.557,-44.5598 120.505,-35.642"/>
</g>
<!-- 11 -->
<g id="node29" class="node"><title>11</title>
<ellipse fill="none" stroke="black" cx="216.145" cy="-19.5" rx="27" ry="18.3848"/>
<text text-anchor="middle" x="216.145" y="-15.9" font-family="Times Roman,serif" font-size="14.00">11</text>
</g>
<!-- 6&#45;&#45;11 -->
<g id="edge38" class="edge"><title>6&#45;&#45;11</title>
<path fill="none" stroke="black" d="M175.517,-64.5015C183.553,-55.6004 193.521,-44.5598 201.572,-35.642"/>
</g>
<!-- 9&#45;&#45;10 -->
<g id="edge46" class="edge"><title>9&#45;&#45;10</title>
<path fill="none" stroke="black" d="M210.646,-110.318C187.409,-90.1649 145.861,-54.1303 122.7,-34.0427"/>
</g>
<!-- 9&#45;&#45;11 -->
<g id="edge48" class="edge"><title>9&#45;&#45;11</title>
<path fill="none" stroke="black" d="M225.518,-106.127C223.44,-86.9264 220.239,-57.3366 218.168,-38.1954"/>
</g>
<!-- 2&#45;&#45;6 -->
<g id="edge18" class="edge"><title>2&#45;&#45;6</title>
<path fill="none" stroke="black" d="M278.294,-192.565C252.689,-168.102 202.393,-120.049 176.802,-95.5989"/>
</g>
<!-- 3 -->
<g id="node17" class="node"><title>3</title>
<ellipse fill="none" stroke="black" cx="28" cy="-97.4322" rx="27" ry="18.3848"/>
<text text-anchor="middle" x="28" y="-93.8322" font-family="Times Roman,serif" font-size="14.00">3</text>
</g>
<!-- 2&#45;&#45;3 -->
<g id="edge16" class="edge"><title>2&#45;&#45;3</title>
<path fill="none" stroke="black" d="M270.93,-198.057C220.609,-177.213 101.728,-127.971 51.2831,-107.076"/>
</g>
<!-- 2&#45;&#45;8 -->
<g id="edge20" class="edge"><title>2&#45;&#45;8</title>
<path fill="none" stroke="black" d="M266.605,-207.645C215.485,-207.645 106.329,-207.645 55.3233,-207.645"/>
</g>
<!-- 5&#45;&#45;10 -->
<g id="edge32" class="edge"><title>5&#45;&#45;10</title>
<path fill="none" stroke="black" d="M208.743,-267.706C188.713,-219.351 133.608,-86.3159 113.448,-37.6438"/>
</g>
<!-- 5&#45;&#45;11 -->
<g id="edge34" class="edge"><title>5&#45;&#45;11</title>
<path fill="none" stroke="black" d="M216.145,-266.867C216.145,-218.013 216.145,-87.0202 216.145,-38.1894"/>
</g>
<!-- 7&#45;&#45;8 -->
<g id="edge40" class="edge"><title>7&#45;&#45;8</title>
<path fill="none" stroke="black" d="M90.5353,-270.18C76.8727,-256.518 57.0178,-236.663 43.3649,-223.01"/>
</g>
<!-- 7&#45;&#45;11 -->
<g id="edge42" class="edge"><title>7&#45;&#45;11</title>
<path fill="none" stroke="black" d="M113.335,-267.706C133.364,-219.351 188.469,-86.3159 208.63,-37.6438"/>
</g>
<!-- 3&#45;&#45;4 -->
<g id="edge22" class="edge"><title>3&#45;&#45;4</title>
<path fill="none" stroke="black" d="M44.3572,-112.2C53.1149,-120.106 63.8717,-129.818 72.6363,-137.73"/>
</g>
<!-- 3&#45;&#45;9 -->
<g id="edge26" class="edge"><title>3&#45;&#45;9</title>
<path fill="none" stroke="black" d="M54.4998,-101.091C92.668,-106.361 162.719,-116.033 200.949,-121.311"/>
</g>
<!-- 3&#45;&#45;7 -->
<g id="edge24" class="edge"><title>3&#45;&#45;7</title>
<path fill="none" stroke="black" d="M35.4725,-115.472C50.3685,-151.435 83.6049,-231.674 98.4824,-267.592"/>
</g>
<!-- 8&#45;&#45;10 -->
<g id="edge44" class="edge"><title>8&#45;&#45;10</title>
<path fill="none" stroke="black" d="M35.4725,-189.605C50.3685,-153.643 83.6049,-73.4029 98.4824,-37.4855"/>
</g>
</g>
</svg>
