<?xml version="1.0" encoding="UTF-8" standalone="no"?>
<!DOCTYPE svg PUBLIC "-//W3C//DTD SVG 1.1//EN"
 "http://www.w3.org/Graphics/SVG/1.1/DTD/svg11.dtd">
<!-- Generated by graphviz version 2.26.3 (20100126.1600)
 -->
<!-- Title: _anonymous_0 Pages: 1 -->
<svg width="663pt" height="513pt"
 viewBox="0.00 0.00 662.67 512.64" xmlns="http://www.w3.org/2000/svg" xmlns:xlink="http://www.w3.org/1999/xlink">
<g id="graph1" class="graph" transform="scale(1 1) rotate(0) translate(4 508.635)">
<title>_anonymous_0</title>
<polygon fill="white" stroke="white" points="-4,5 -4,-508.635 659.674,-508.635 659.674,5 -4,5"/>
<!-- 0 -->
<g id="node1" class="node"><title>0</title>
<ellipse fill="none" stroke="black" cx="294.077" cy="-219.058" rx="27" ry="18.3848"/>
<text text-anchor="middle" x="294.077" y="-215.458" font-family="Times Roman,serif" font-size="14.00">0</text>
</g>
<!-- 1 -->
<g id="node3" class="node"><title>1</title>
<ellipse fill="none" stroke="black" cx="294.077" cy="-291.058" rx="27" ry="18.3848"/>
<text text-anchor="middle" x="294.077" y="-287.458" font-family="Times Roman,serif" font-size="14.00">1</text>
</g>
<!-- 0&#45;&#45;1 -->
<g id="edge2" class="edge"><title>0&#45;&#45;1</title>
<path fill="none" stroke="black" d="M294.077,-237.6C294.077,-248.266 294.077,-261.631 294.077,-272.329"/>
</g>
<!-- 5 -->
<g id="node5" class="node"><title>5</title>
<ellipse fill="none" stroke="black" cx="243.166" cy="-168.146" rx="27" ry="18.3848"/>
<text text-anchor="middle" x="243.166" y="-164.546" font-family="Times Roman,serif" font-size="14.00">5</text>
</g>
<!-- 0&#45;&#45;5 -->
<g id="edge4" class="edge"><title>0&#45;&#45;5</title>
<path fill="none" stroke="black" d="M278.802,-203.783C272.358,-197.339 264.873,-189.853 258.43,-183.411"/>
</g>
<!-- 19 -->
<g id="node7" class="node"><title>19</title>
<ellipse fill="none" stroke="black" cx="344.989" cy="-168.146" rx="27" ry="18.3848"/>
<text text-anchor="middle" x="344.989" y="-164.546" font-family="Times Roman,serif" font-size="14.00">19</text>
</g>
<!-- 0&#45;&#45;19 -->
<g id="edge6" class="edge"><title>0&#45;&#45;19</title>
<path fill="none" stroke="black" d="M309.352,-203.783C315.796,-197.339 323.282,-189.853 329.725,-183.411"/>
</g>
<!-- 2 -->
<g id="node9" class="node"><title>2</title>
<ellipse fill="none" stroke="black" cx="395.901" cy="-320.881" rx="27" ry="18.3848"/>
<text text-anchor="middle" x="395.901" y="-317.281" font-family="Times Roman,serif" font-size="14.00">2</text>
</g>
<!-- 1&#45;&#45;2 -->
<g id="edge8" class="edge"><title>1&#45;&#45;2</title>
<path fill="none" stroke="black" d="M318.986,-298.354C334.765,-302.975 355.099,-308.931 370.896,-313.558"/>
</g>
<!-- 16 -->
<g id="node11" class="node"><title>16</title>
<ellipse fill="none" stroke="black" cx="192.254" cy="-320.881" rx="27" ry="18.3848"/>
<text text-anchor="middle" x="192.254" y="-317.281" font-family="Times Roman,serif" font-size="14.00">16</text>
</g>
<!-- 1&#45;&#45;16 -->
<g id="edge10" class="edge"><title>1&#45;&#45;16</title>
<path fill="none" stroke="black" d="M269.169,-298.354C253.39,-302.975 233.056,-308.931 217.258,-313.558"/>
</g>
<!-- 6 -->
<g id="node24" class="node"><title>6</title>
<ellipse fill="none" stroke="black" cx="161.039" cy="-163.952" rx="27" ry="18.3848"/>
<text text-anchor="middle" x="161.039" y="-160.352" font-family="Times Roman,serif" font-size="14.00">6</text>
</g>
<!-- 5&#45;&#45;6 -->
<g id="edge24" class="edge"><title>5&#45;&#45;6</title>
<path fill="none" stroke="black" d="M215.819,-166.75C206.859,-166.292 196.916,-165.784 187.987,-165.328"/>
</g>
<!-- 3 -->
<g id="node13" class="node"><title>3</title>
<ellipse fill="none" stroke="black" cx="493.635" cy="-301.718" rx="27" ry="18.3848"/>
<text text-anchor="middle" x="493.635" y="-298.118" font-family="Times Roman,serif" font-size="14.00">3</text>
</g>
<!-- 2&#45;&#45;3 -->
<g id="edge12" class="edge"><title>2&#45;&#45;3</title>
<path fill="none" stroke="black" d="M422.092,-315.746C436.115,-312.996 453.338,-309.619 467.372,-306.867"/>
</g>
<!-- 11 -->
<g id="node15" class="node"><title>11</title>
<ellipse fill="none" stroke="black" cx="376.737" cy="-418.616" rx="27" ry="18.3848"/>
<text text-anchor="middle" x="376.737" y="-415.016" font-family="Times Roman,serif" font-size="14.00">11</text>
</g>
<!-- 2&#45;&#45;11 -->
<g id="edge14" class="edge"><title>2&#45;&#45;11</title>
<path fill="none" stroke="black" d="M392.296,-339.264C388.892,-356.627 383.811,-382.539 380.39,-399.983"/>
</g>
<!-- 17 -->
<g id="node44" class="node"><title>17</title>
<ellipse fill="none" stroke="black" cx="211.418" cy="-418.616" rx="27" ry="18.3848"/>
<text text-anchor="middle" x="211.418" y="-415.016" font-family="Times Roman,serif" font-size="14.00">17</text>
</g>
<!-- 16&#45;&#45;17 -->
<g id="edge56" class="edge"><title>16&#45;&#45;17</title>
<path fill="none" stroke="black" d="M195.858,-339.264C199.263,-356.627 204.344,-382.539 207.764,-399.983"/>
</g>
<!-- 4 -->
<g id="node17" class="node"><title>4</title>
<ellipse fill="none" stroke="black" cx="238.971" cy="-86.0193" rx="27" ry="18.3848"/>
<text text-anchor="middle" x="238.971" y="-82.4193" font-family="Times Roman,serif" font-size="14.00">4</text>
</g>
<!-- 3&#45;&#45;4 -->
<g id="edge16" class="edge"><title>3&#45;&#45;4</title>
<path fill="none" stroke="black" d="M476.531,-287.23C430.138,-247.936 302.307,-139.664 256.001,-100.444"/>
</g>
<!-- 14 -->
<g id="node19" class="node"><title>14</title>
<ellipse fill="none" stroke="black" cx="560.155" cy="-329.271" rx="27" ry="18.3848"/>
<text text-anchor="middle" x="560.155" y="-325.671" font-family="Times Roman,serif" font-size="14.00">14</text>
</g>
<!-- 3&#45;&#45;14 -->
<g id="edge18" class="edge"><title>3&#45;&#45;14</title>
<path fill="none" stroke="black" d="M516.901,-311.354C523.345,-314.024 530.34,-316.921 536.79,-319.593"/>
</g>
<!-- 12 -->
<g id="node41" class="node"><title>12</title>
<ellipse fill="none" stroke="black" cx="404.29" cy="-485.135" rx="27" ry="18.3848"/>
<text text-anchor="middle" x="404.29" y="-481.535" font-family="Times Roman,serif" font-size="14.00">12</text>
</g>
<!-- 11&#45;&#45;12 -->
<g id="edge44" class="edge"><title>11&#45;&#45;12</title>
<path fill="none" stroke="black" d="M384.121,-436.442C388.074,-445.986 392.93,-457.709 396.886,-467.26"/>
</g>
<!-- 4&#45;&#45;5 -->
<g id="edge20" class="edge"><title>4&#45;&#45;5</title>
<path fill="none" stroke="black" d="M239.923,-104.655C240.609,-118.096 241.532,-136.161 242.218,-149.584"/>
</g>
<!-- 9 -->
<g id="node22" class="node"><title>9</title>
<ellipse fill="none" stroke="black" cx="211.418" cy="-19.5" rx="27" ry="18.3848"/>
<text text-anchor="middle" x="211.418" y="-15.9" font-family="Times Roman,serif" font-size="14.00">9</text>
</g>
<!-- 4&#45;&#45;9 -->
<g id="edge22" class="edge"><title>4&#45;&#45;9</title>
<path fill="none" stroke="black" d="M231.587,-68.1934C227.634,-58.6493 222.778,-46.9267 218.822,-37.3752"/>
</g>
<!-- 15 -->
<g id="node28" class="node"><title>15</title>
<ellipse fill="none" stroke="black" cx="94.5193" cy="-301.718" rx="27" ry="18.3848"/>
<text text-anchor="middle" x="94.5193" y="-298.118" font-family="Times Roman,serif" font-size="14.00">15</text>
</g>
<!-- 14&#45;&#45;15 -->
<g id="edge52" class="edge"><title>14&#45;&#45;15</title>
<path fill="none" stroke="black" d="M533.107,-327.67C450.81,-322.801 204.038,-308.198 121.641,-303.322"/>
</g>
<!-- 10 -->
<g id="node37" class="node"><title>10</title>
<ellipse fill="none" stroke="black" cx="427.116" cy="-163.952" rx="27" ry="18.3848"/>
<text text-anchor="middle" x="427.116" y="-160.352" font-family="Times Roman,serif" font-size="14.00">10</text>
</g>
<!-- 9&#45;&#45;10 -->
<g id="edge38" class="edge"><title>9&#45;&#45;10</title>
<path fill="none" stroke="black" d="M230.94,-32.5739C272.006,-60.0758 366.902,-123.627 407.793,-151.011"/>
</g>
<!-- 7 -->
<g id="node26" class="node"><title>7</title>
<ellipse fill="none" stroke="black" cx="94.5193" cy="-136.398" rx="27" ry="18.3848"/>
<text text-anchor="middle" x="94.5193" y="-132.798" font-family="Times Roman,serif" font-size="14.00">7</text>
</g>
<!-- 6&#45;&#45;7 -->
<g id="edge26" class="edge"><title>6&#45;&#45;7</title>
<path fill="none" stroke="black" d="M137.773,-154.315C131.329,-151.646 124.334,-148.748 117.884,-146.076"/>
</g>
<!-- 6&#45;&#45;15 -->
<g id="edge28" class="edge"><title>6&#45;&#45;15</title>
<path fill="none" stroke="black" d="M152.479,-181.68C139.706,-208.133 115.8,-257.644 103.047,-284.057"/>
</g>
<!-- 8 -->
<g id="node30" class="node"><title>8</title>
<ellipse fill="none" stroke="black" cx="28" cy="-108.845" rx="27" ry="18.3848"/>
<text text-anchor="middle" x="28" y="-105.245" font-family="Times Roman,serif" font-size="14.00">8</text>
</g>
<!-- 7&#45;&#45;8 -->
<g id="edge30" class="edge"><title>7&#45;&#45;8</title>
<path fill="none" stroke="black" d="M71.2541,-126.762C64.8101,-124.092 57.8142,-121.195 51.3645,-118.523"/>
</g>
<!-- 18 -->
<g id="node32" class="node"><title>18</title>
<ellipse fill="none" stroke="black" cx="349.184" cy="-86.0193" rx="27" ry="18.3848"/>
<text text-anchor="middle" x="349.184" y="-82.4193" font-family="Times Roman,serif" font-size="14.00">18</text>
</g>
<!-- 7&#45;&#45;18 -->
<g id="edge32" class="edge"><title>7&#45;&#45;18</title>
<path fill="none" stroke="black" d="M120.814,-131.197C169.741,-121.518 274.214,-100.85 323.032,-91.1927"/>
</g>
<!-- 15&#45;&#45;16 -->
<g id="edge54" class="edge"><title>15&#45;&#45;16</title>
<path fill="none" stroke="black" d="M120.71,-306.853C134.733,-309.603 151.957,-312.98 165.991,-315.732"/>
</g>
<!-- 8&#45;&#45;9 -->
<g id="edge34" class="edge"><title>8&#45;&#45;9</title>
<path fill="none" stroke="black" d="M50.1245,-98.068C85.3782,-80.8955 153.912,-47.5119 189.215,-30.3153"/>
</g>
<!-- 13 -->
<g id="node35" class="node"><title>13</title>
<ellipse fill="none" stroke="black" cx="626.674" cy="-356.824" rx="27" ry="18.3848"/>
<text text-anchor="middle" x="626.674" y="-353.224" font-family="Times Roman,serif" font-size="14.00">13</text>
</g>
<!-- 8&#45;&#45;13 -->
<g id="edge36" class="edge"><title>8&#45;&#45;13</title>
<path fill="none" stroke="black" d="M51.4687,-118.566C147.238,-158.235 507.898,-307.625 603.367,-347.17"/>
</g>
<!-- 18&#45;&#45;19 -->
<g id="edge60" class="edge"><title>18&#45;&#45;19</title>
<path fill="none" stroke="black" d="M348.232,-104.655C347.545,-118.096 346.623,-136.161 345.937,-149.584"/>
</g>
<!-- 13&#45;&#45;14 -->
<g id="edge50" class="edge"><title>13&#45;&#45;14</title>
<path fill="none" stroke="black" d="M603.409,-347.187C596.965,-344.518 589.969,-341.62 583.519,-338.949"/>
</g>
<!-- 10&#45;&#45;19 -->
<g id="edge42" class="edge"><title>10&#45;&#45;19</title>
<path fill="none" stroke="black" d="M399.769,-165.348C390.81,-165.806 380.867,-166.314 371.937,-166.77"/>
</g>
<!-- 10&#45;&#45;11 -->
<g id="edge40" class="edge"><title>10&#45;&#45;11</title>
<path fill="none" stroke="black" d="M423.411,-182.678C414.072,-229.888 389.651,-353.338 380.379,-400.206"/>
</g>
<!-- 12&#45;&#45;13 -->
<g id="edge46" class="edge"><title>12&#45;&#45;13</title>
<path fill="none" stroke="black" d="M425.211,-473.064C467.704,-448.547 563.661,-393.181 605.97,-368.77"/>
</g>
<!-- 12&#45;&#45;17 -->
<g id="edge48" class="edge"><title>12&#45;&#45;17</title>
<path fill="none" stroke="black" d="M379.863,-476.711C342.763,-463.915 272.629,-439.727 235.647,-426.972"/>
</g>
<!-- 17&#45;&#45;18 -->
<g id="edge58" class="edge"><title>17&#45;&#45;18</title>
<path fill="none" stroke="black" d="M218.825,-400.734C242.745,-342.984 317.767,-161.865 341.74,-103.99"/>
</g>
</g>
</svg>
