<?xml version="1.0" encoding="UTF-8" standalone="no"?>
<!DOCTYPE svg PUBLIC "-//W3C//DTD SVG 1.1//EN"
 "http://www.w3.org/Graphics/SVG/1.1/DTD/svg11.dtd">
<!-- Generated by graphviz version 2.26.3 (20100126.1600)
 -->
<!-- Title: _anonymous_0 Pages: 1 -->
<svg width="866pt" height="849pt"
 viewBox="0.00 0.00 866.14 849.14" xmlns="http://www.w3.org/2000/svg" xmlns:xlink="http://www.w3.org/1999/xlink">
<g id="graph1" class="graph" transform="scale(1 1) rotate(0) translate(4 845.141)">
<title>_anonymous_0</title>
<polygon fill="white" stroke="white" points="-4,5 -4,-845.141 863.141,-845.141 863.141,5 -4,5"/>
<!-- 0 -->
<g id="node1" class="node"><title>0</title>
<ellipse fill="none" stroke="black" cx="810.511" cy="-296.633" rx="27" ry="18.3848"/>
<text text-anchor="middle" x="810.511" y="-293.033" font-family="Times Roman,serif" font-size="14.00">0</text>
</g>
<!-- 1 -->
<g id="node3" class="node"><title>1</title>
<ellipse fill="none" stroke="black" cx="753.543" cy="-184.827" rx="27" ry="18.3848"/>
<text text-anchor="middle" x="753.543" y="-181.227" font-family="Times Roman,serif" font-size="14.00">1</text>
</g>
<!-- 0&#45;&#45;1 -->
<g id="edge2" class="edge"><title>0&#45;&#45;1</title>
<path fill="none" stroke="black" d="M801.61,-279.163C790.97,-258.282 773.265,-223.533 762.57,-202.543"/>
</g>
<!-- 10 -->
<g id="node5" class="node"><title>10</title>
<ellipse fill="none" stroke="black" cx="429.07" cy="-19.5" rx="27" ry="18.3848"/>
<text text-anchor="middle" x="429.07" y="-15.9" font-family="Times Roman,serif" font-size="14.00">10</text>
</g>
<!-- 0&#45;&#45;10 -->
<g id="edge4" class="edge"><title>0&#45;&#45;10</title>
<path fill="none" stroke="black" d="M791.855,-283.079C727.09,-236.024 512.4,-80.0427 447.69,-33.0282"/>
</g>
<!-- 19 -->
<g id="node7" class="node"><title>19</title>
<ellipse fill="none" stroke="black" cx="830.141" cy="-420.57" rx="27" ry="18.3848"/>
<text text-anchor="middle" x="830.141" y="-416.97" font-family="Times Roman,serif" font-size="14.00">19</text>
</g>
<!-- 0&#45;&#45;19 -->
<g id="edge6" class="edge"><title>0&#45;&#45;19</title>
<path fill="none" stroke="black" d="M813.45,-315.188C817.151,-338.552 823.472,-378.464 827.182,-401.889"/>
</g>
<!-- 2 -->
<g id="node9" class="node"><title>2</title>
<ellipse fill="none" stroke="black" cx="664.814" cy="-745.043" rx="27" ry="18.3848"/>
<text text-anchor="middle" x="664.814" y="-741.443" font-family="Times Roman,serif" font-size="14.00">2</text>
</g>
<!-- 1&#45;&#45;2 -->
<g id="edge8" class="edge"><title>1&#45;&#45;2</title>
<path fill="none" stroke="black" d="M750.591,-203.467C737.075,-288.807 681.177,-641.728 667.732,-726.618"/>
</g>
<!-- 8 -->
<g id="node11" class="node"><title>8</title>
<ellipse fill="none" stroke="black" cx="664.814" cy="-96.0976" rx="27" ry="18.3848"/>
<text text-anchor="middle" x="664.814" y="-92.4976" font-family="Times Roman,serif" font-size="14.00">8</text>
</g>
<!-- 1&#45;&#45;8 -->
<g id="edge10" class="edge"><title>1&#45;&#45;8</title>
<path fill="none" stroke="black" d="M738.088,-169.372C721.802,-153.086 696.311,-127.595 680.092,-111.376"/>
</g>
<!-- 11 -->
<g id="node37" class="node"><title>11</title>
<ellipse fill="none" stroke="black" cx="305.133" cy="-39.1298" rx="27" ry="18.3848"/>
<text text-anchor="middle" x="305.133" y="-35.5298" font-family="Times Roman,serif" font-size="14.00">11</text>
</g>
<!-- 10&#45;&#45;11 -->
<g id="edge40" class="edge"><title>10&#45;&#45;11</title>
<path fill="none" stroke="black" d="M402.483,-23.7111C381.571,-27.0231 352.577,-31.6154 331.677,-34.9257"/>
</g>
<!-- 3 -->
<g id="node13" class="node"><title>3</title>
<ellipse fill="none" stroke="black" cx="753.543" cy="-656.314" rx="27" ry="18.3848"/>
<text text-anchor="middle" x="753.543" y="-652.714" font-family="Times Roman,serif" font-size="14.00">3</text>
</g>
<!-- 2&#45;&#45;3 -->
<g id="edge12" class="edge"><title>2&#45;&#45;3</title>
<path fill="none" stroke="black" d="M680.269,-729.588C696.555,-713.302 722.046,-687.811 738.265,-671.592"/>
</g>
<!-- 6 -->
<g id="node15" class="node"><title>6</title>
<ellipse fill="none" stroke="black" cx="553.008" cy="-802.011" rx="27" ry="18.3848"/>
<text text-anchor="middle" x="553.008" y="-798.411" font-family="Times Roman,serif" font-size="14.00">6</text>
</g>
<!-- 2&#45;&#45;6 -->
<g id="edge14" class="edge"><title>2&#45;&#45;6</title>
<path fill="none" stroke="black" d="M642.991,-756.162C623.291,-766.2 594.459,-780.891 574.776,-790.92"/>
</g>
<!-- 9 -->
<g id="node32" class="node"><title>9</title>
<ellipse fill="none" stroke="black" cx="553.008" cy="-39.1298" rx="27" ry="18.3848"/>
<text text-anchor="middle" x="553.008" y="-35.5298" font-family="Times Roman,serif" font-size="14.00">9</text>
</g>
<!-- 8&#45;&#45;9 -->
<g id="edge34" class="edge"><title>8&#45;&#45;9</title>
<path fill="none" stroke="black" d="M642.991,-84.9784C623.291,-74.9406 594.459,-60.2502 574.776,-50.221"/>
</g>
<!-- 3&#45;&#45;19 -->
<g id="edge18" class="edge"><title>3&#45;&#45;19</title>
<path fill="none" stroke="black" d="M759.427,-638.207C773.685,-594.325 809.959,-482.684 824.238,-438.739"/>
</g>
<!-- 4 -->
<g id="node17" class="node"><title>4</title>
<ellipse fill="none" stroke="black" cx="305.133" cy="-802.011" rx="27" ry="18.3848"/>
<text text-anchor="middle" x="305.133" y="-798.411" font-family="Times Roman,serif" font-size="14.00">4</text>
</g>
<!-- 3&#45;&#45;4 -->
<g id="edge16" class="edge"><title>3&#45;&#45;4</title>
<path fill="none" stroke="black" d="M729.116,-664.251C650.986,-689.637 407.743,-768.671 329.582,-794.067"/>
</g>
<!-- 7 -->
<g id="node27" class="node"><title>7</title>
<ellipse fill="none" stroke="black" cx="28" cy="-420.57" rx="27" ry="18.3848"/>
<text text-anchor="middle" x="28" y="-416.97" font-family="Times Roman,serif" font-size="14.00">7</text>
</g>
<!-- 6&#45;&#45;7 -->
<g id="edge28" class="edge"><title>6&#45;&#45;7</title>
<path fill="none" stroke="black" d="M534.323,-788.435C452.763,-729.179 128.393,-493.51 46.7348,-434.182"/>
</g>
<!-- 5 -->
<g id="node20" class="node"><title>5</title>
<ellipse fill="none" stroke="black" cx="429.07" cy="-821.641" rx="27" ry="18.3848"/>
<text text-anchor="middle" x="429.07" y="-818.041" font-family="Times Roman,serif" font-size="14.00">5</text>
</g>
<!-- 4&#45;&#45;5 -->
<g id="edge20" class="edge"><title>4&#45;&#45;5</title>
<path fill="none" stroke="black" d="M331.721,-806.222C352.632,-809.534 381.627,-814.127 402.527,-817.437"/>
</g>
<!-- 17 -->
<g id="node22" class="node"><title>17</title>
<ellipse fill="none" stroke="black" cx="193.327" cy="-745.043" rx="27" ry="18.3848"/>
<text text-anchor="middle" x="193.327" y="-741.443" font-family="Times Roman,serif" font-size="14.00">17</text>
</g>
<!-- 4&#45;&#45;17 -->
<g id="edge22" class="edge"><title>4&#45;&#45;17</title>
<path fill="none" stroke="black" d="M283.31,-790.892C263.61,-780.854 234.778,-766.164 215.095,-756.134"/>
</g>
<!-- 5&#45;&#45;6 -->
<g id="edge24" class="edge"><title>5&#45;&#45;6</title>
<path fill="none" stroke="black" d="M455.658,-817.43C476.569,-814.118 505.564,-809.525 526.464,-806.215"/>
</g>
<!-- 15 -->
<g id="node25" class="node"><title>15</title>
<ellipse fill="none" stroke="black" cx="47.6298" cy="-544.508" rx="27" ry="18.3848"/>
<text text-anchor="middle" x="47.6298" y="-540.908" font-family="Times Roman,serif" font-size="14.00">15</text>
</g>
<!-- 5&#45;&#45;15 -->
<g id="edge26" class="edge"><title>5&#45;&#45;15</title>
<path fill="none" stroke="black" d="M410.415,-808.087C345.649,-761.032 130.96,-605.051 66.2498,-558.036"/>
</g>
<!-- 18 -->
<g id="node41" class="node"><title>18</title>
<ellipse fill="none" stroke="black" cx="810.511" cy="-544.508" rx="27" ry="18.3848"/>
<text text-anchor="middle" x="810.511" y="-540.908" font-family="Times Roman,serif" font-size="14.00">18</text>
</g>
<!-- 17&#45;&#45;18 -->
<g id="edge58" class="edge"><title>17&#45;&#45;18</title>
<path fill="none" stroke="black" d="M217.902,-737.058C316.997,-704.86 686.643,-584.755 785.866,-552.516"/>
</g>
<!-- 16 -->
<g id="node44" class="node"><title>16</title>
<ellipse fill="none" stroke="black" cx="104.598" cy="-656.314" rx="27" ry="18.3848"/>
<text text-anchor="middle" x="104.598" y="-652.714" font-family="Times Roman,serif" font-size="14.00">16</text>
</g>
<!-- 15&#45;&#45;16 -->
<g id="edge54" class="edge"><title>15&#45;&#45;16</title>
<path fill="none" stroke="black" d="M56.531,-561.978C67.1708,-582.859 84.876,-617.608 95.5709,-638.598"/>
</g>
<!-- 7&#45;&#45;8 -->
<g id="edge30" class="edge"><title>7&#45;&#45;8</title>
<path fill="none" stroke="black" d="M49.9206,-409.401C147.901,-359.478 545.193,-157.047 642.985,-107.22"/>
</g>
<!-- 14 -->
<g id="node30" class="node"><title>14</title>
<ellipse fill="none" stroke="black" cx="47.6298" cy="-296.633" rx="27" ry="18.3848"/>
<text text-anchor="middle" x="47.6298" y="-293.033" font-family="Times Roman,serif" font-size="14.00">14</text>
</g>
<!-- 7&#45;&#45;14 -->
<g id="edge32" class="edge"><title>7&#45;&#45;14</title>
<path fill="none" stroke="black" d="M30.9388,-402.016C34.6394,-378.651 40.9608,-338.739 44.6709,-315.314"/>
</g>
<!-- 14&#45;&#45;15 -->
<g id="edge52" class="edge"><title>14&#45;&#45;15</title>
<path fill="none" stroke="black" d="M47.6298,-315.264C47.6298,-361.313 47.6298,-480.078 47.6298,-525.999"/>
</g>
<!-- 9&#45;&#45;10 -->
<g id="edge36" class="edge"><title>9&#45;&#45;10</title>
<path fill="none" stroke="black" d="M526.42,-34.9187C505.509,-31.6067 476.514,-27.0143 455.614,-23.7041"/>
</g>
<!-- 13 -->
<g id="node35" class="node"><title>13</title>
<ellipse fill="none" stroke="black" cx="104.598" cy="-184.827" rx="27" ry="18.3848"/>
<text text-anchor="middle" x="104.598" y="-181.227" font-family="Times Roman,serif" font-size="14.00">13</text>
</g>
<!-- 9&#45;&#45;13 -->
<g id="edge38" class="edge"><title>9&#45;&#45;13</title>
<path fill="none" stroke="black" d="M528.581,-47.0666C450.451,-72.4525 207.208,-151.487 129.047,-176.883"/>
</g>
<!-- 13&#45;&#45;14 -->
<g id="edge50" class="edge"><title>13&#45;&#45;14</title>
<path fill="none" stroke="black" d="M95.6964,-202.297C85.0567,-223.178 67.3515,-257.927 56.6565,-278.917"/>
</g>
<!-- 12 -->
<g id="node39" class="node"><title>12</title>
<ellipse fill="none" stroke="black" cx="193.327" cy="-96.0976" rx="27" ry="18.3848"/>
<text text-anchor="middle" x="193.327" y="-92.4976" font-family="Times Roman,serif" font-size="14.00">12</text>
</g>
<!-- 11&#45;&#45;12 -->
<g id="edge42" class="edge"><title>11&#45;&#45;12</title>
<path fill="none" stroke="black" d="M283.31,-50.249C263.61,-60.2869 234.778,-74.9773 215.095,-85.0065"/>
</g>
<!-- 11&#45;&#45;18 -->
<g id="edge44" class="edge"><title>11&#45;&#45;18</title>
<path fill="none" stroke="black" d="M320.534,-54.5307C395.306,-129.302 719.926,-453.923 794.982,-528.979"/>
</g>
<!-- 12&#45;&#45;13 -->
<g id="edge46" class="edge"><title>12&#45;&#45;13</title>
<path fill="none" stroke="black" d="M177.872,-111.553C161.586,-127.839 136.095,-153.33 119.876,-169.549"/>
</g>
<!-- 12&#45;&#45;16 -->
<g id="edge48" class="edge"><title>12&#45;&#45;16</title>
<path fill="none" stroke="black" d="M190.375,-114.737C176.858,-200.077 120.961,-552.998 107.516,-637.889"/>
</g>
<!-- 18&#45;&#45;19 -->
<g id="edge60" class="edge"><title>18&#45;&#45;19</title>
<path fill="none" stroke="black" d="M813.45,-525.953C817.151,-502.589 823.472,-462.676 827.182,-439.252"/>
</g>
<!-- 16&#45;&#45;17 -->
<g id="edge56" class="edge"><title>16&#45;&#45;17</title>
<path fill="none" stroke="black" d="M120.053,-671.769C136.339,-688.055 161.83,-713.546 178.049,-729.765"/>
</g>
</g>
</svg>
