<?xml version="1.0" encoding="UTF-8" standalone="no"?>
<!DOCTYPE svg PUBLIC "-//W3C//DTD SVG 1.1//EN"
 "http://www.w3.org/Graphics/SVG/1.1/DTD/svg11.dtd">
<!-- Generated by graphviz version 2.26.3 (20100126.1600)
 -->
<!-- Title: _anonymous_0 Pages: 1 -->
<svg width="217pt" height="200pt"
 viewBox="0.00 0.00 216.74 199.74" xmlns="http://www.w3.org/2000/svg" xmlns:xlink="http://www.w3.org/1999/xlink">
<g id="graph1" class="graph" transform="scale(1 1) rotate(0) translate(4 195.735)">
<title>_anonymous_0</title>
<polygon fill="white" stroke="white" points="-4,5 -4,-195.735 213.735,-195.735 213.735,5 -4,5"/>
<!-- 0 -->
<g id="node1" class="node"><title>0</title>
<ellipse fill="none" stroke="black" cx="78.9117" cy="-70.4117" rx="27" ry="18.3848"/>
<text text-anchor="middle" x="78.9117" y="-66.8117" font-family="Times Roman,serif" font-size="14.00">0</text>
</g>
<!-- 1 -->
<g id="node3" class="node"><title>1</title>
<ellipse fill="none" stroke="black" cx="129.823" cy="-121.323" rx="27" ry="18.3848"/>
<text text-anchor="middle" x="129.823" y="-117.723" font-family="Times Roman,serif" font-size="14.00">1</text>
</g>
<!-- 0&#45;&#45;1 -->
<g id="edge2" class="edge"><title>0&#45;&#45;1</title>
<path fill="none" stroke="black" d="M94.1869,-85.6869C100.631,-92.1306 108.116,-99.6164 114.559,-106.059"/>
</g>
<!-- 2 -->
<g id="node5" class="node"><title>2</title>
<ellipse fill="none" stroke="black" cx="28" cy="-121.323" rx="27" ry="18.3848"/>
<text text-anchor="middle" x="28" y="-117.723" font-family="Times Roman,serif" font-size="14.00">2</text>
</g>
<!-- 0&#45;&#45;2 -->
<g id="edge4" class="edge"><title>0&#45;&#45;2</title>
<path fill="none" stroke="black" d="M63.6365,-85.6869C57.1928,-92.1306 49.707,-99.6164 43.2644,-106.059"/>
</g>
<!-- 3 -->
<g id="node7" class="node"><title>3</title>
<ellipse fill="none" stroke="black" cx="28" cy="-19.5" rx="27" ry="18.3848"/>
<text text-anchor="middle" x="28" y="-15.9" font-family="Times Roman,serif" font-size="14.00">3</text>
</g>
<!-- 0&#45;&#45;3 -->
<g id="edge6" class="edge"><title>0&#45;&#45;3</title>
<path fill="none" stroke="black" d="M63.6365,-55.1365C57.1928,-48.6928 49.707,-41.207 43.2644,-34.7644"/>
</g>
<!-- 4 -->
<g id="node9" class="node"><title>4</title>
<ellipse fill="none" stroke="black" cx="129.823" cy="-19.5" rx="27" ry="18.3848"/>
<text text-anchor="middle" x="129.823" y="-15.9" font-family="Times Roman,serif" font-size="14.00">4</text>
</g>
<!-- 0&#45;&#45;4 -->
<g id="edge8" class="edge"><title>0&#45;&#45;4</title>
<path fill="none" stroke="black" d="M94.1869,-55.1365C100.631,-48.6928 108.116,-41.207 114.559,-34.7644"/>
</g>
<!-- 1&#45;&#45;2 -->
<g id="edge10" class="edge"><title>1&#45;&#45;2</title>
<path fill="none" stroke="black" d="M102.804,-121.323C88.0746,-121.323 69.8947,-121.323 55.1457,-121.323"/>
</g>
<!-- 1&#45;&#45;3 -->
<g id="edge12" class="edge"><title>1&#45;&#45;3</title>
<path fill="none" stroke="black" d="M114.359,-105.859C95.1091,-86.6091 62.4382,-53.9382 43.2767,-34.7767"/>
</g>
<!-- 5 -->
<g id="node13" class="node"><title>5</title>
<ellipse fill="none" stroke="black" cx="180.735" cy="-172.235" rx="27" ry="18.3848"/>
<text text-anchor="middle" x="180.735" y="-168.635" font-family="Times Roman,serif" font-size="14.00">5</text>
</g>
<!-- 1&#45;&#45;5 -->
<g id="edge14" class="edge"><title>1&#45;&#45;5</title>
<path fill="none" stroke="black" d="M145.099,-136.599C151.542,-143.042 159.028,-150.528 165.471,-156.971"/>
</g>
<!-- 2&#45;&#45;4 -->
<g id="edge16" class="edge"><title>2&#45;&#45;4</title>
<path fill="none" stroke="black" d="M43.4648,-105.859C62.7143,-86.6091 95.3851,-53.9382 114.547,-34.7767"/>
</g>
<!-- 2&#45;&#45;5 -->
<g id="edge18" class="edge"><title>2&#45;&#45;5</title>
<path fill="none" stroke="black" d="M52.5395,-129.503C81.0416,-139.004 127.78,-154.584 156.256,-164.076"/>
</g>
<!-- 3&#45;&#45;4 -->
<g id="edge20" class="edge"><title>3&#45;&#45;4</title>
<path fill="none" stroke="black" d="M55.0195,-19.5C69.7488,-19.5 87.9287,-19.5 102.678,-19.5"/>
</g>
<!-- 3&#45;&#45;5 -->
<g id="edge22" class="edge"><title>3&#45;&#45;5</title>
<path fill="none" stroke="black" d="M43.4856,-34.9856C72.7595,-64.2595 135.903,-127.403 165.208,-156.708"/>
</g>
<!-- 4&#45;&#45;5 -->
<g id="edge24" class="edge"><title>4&#45;&#45;5</title>
<path fill="none" stroke="black" d="M135.864,-37.6205C145.662,-67.0157 164.909,-124.758 174.703,-154.138"/>
</g>
</g>
</svg>
