<?xml version="1.0" encoding="UTF-8" standalone="no"?>
<!DOCTYPE svg PUBLIC "-//W3C//DTD SVG 1.1//EN"
 "http://www.w3.org/Graphics/SVG/1.1/DTD/svg11.dtd">
<!-- Generated by graphviz version 2.26.3 (20100126.1600)
 -->
<!-- Title: _anonymous_0 Pages: 1 -->
<svg width="437pt" height="457pt"
 viewBox="0.00 0.00 436.75 456.86" xmlns="http://www.w3.org/2000/svg" xmlns:xlink="http://www.w3.org/1999/xlink">
<g id="graph1" class="graph" transform="scale(1 1) rotate(0) translate(4 452.856)">
<title>_anonymous_0</title>
<polygon fill="white" stroke="white" points="-4,5 -4,-452.856 433.748,-452.856 433.748,5 -4,5"/>
<!-- 0 -->
<g id="node1" class="node"><title>0</title>
<ellipse fill="none" stroke="black" cx="409.748" cy="-97.4666" rx="18" ry="18"/>
</g>
<!-- 1 -->
<g id="node3" class="node"><title>1</title>
<ellipse fill="none" stroke="black" cx="279.498" cy="-87.4761" rx="18" ry="18"/>
</g>
<!-- 0&#45;&#45;1 -->
<g id="edge2" class="edge"><title>0&#45;&#45;1</title>
<path fill="none" stroke="black" d="M391.637,-96.0775C366.753,-94.1687 322.259,-90.7559 297.455,-88.8534"/>
</g>
<!-- 6 -->
<g id="node5" class="node"><title>6</title>
<ellipse fill="none" stroke="black" cx="409.748" cy="-351.39" rx="18" ry="18"/>
</g>
<!-- 0&#45;&#45;6 -->
<g id="edge4" class="edge"><title>0&#45;&#45;6</title>
<path fill="none" stroke="black" d="M409.748,-115.728C409.748,-162.579 409.748,-286.625 409.748,-333.294"/>
</g>
<!-- 7 -->
<g id="node7" class="node"><title>7</title>
<ellipse fill="none" stroke="black" cx="168.252" cy="-19" rx="18" ry="18"/>
</g>
<!-- 0&#45;&#45;7 -->
<g id="edge6" class="edge"><title>0&#45;&#45;7</title>
<path fill="none" stroke="black" d="M392.38,-91.8235C347.822,-77.3458 229.847,-39.0133 185.463,-24.592"/>
</g>
<!-- 1&#45;&#45;7 -->
<g id="edge10" class="edge"><title>1&#45;&#45;7</title>
<path fill="none" stroke="black" d="M264.03,-77.9548C242.776,-64.8722 204.774,-41.4803 183.589,-28.4404"/>
</g>
<!-- 2 -->
<g id="node9" class="node"><title>2</title>
<ellipse fill="none" stroke="black" cx="257.249" cy="-155.952" rx="18" ry="18"/>
</g>
<!-- 1&#45;&#45;2 -->
<g id="edge8" class="edge"><title>1&#45;&#45;2</title>
<path fill="none" stroke="black" d="M273.884,-104.755C270.537,-115.057 266.3,-128.098 262.939,-138.44"/>
</g>
<!-- 10 -->
<g id="node24" class="node"><title>10</title>
<ellipse fill="none" stroke="black" cx="168.252" cy="-429.856" rx="18" ry="18"/>
</g>
<!-- 6&#45;&#45;10 -->
<g id="edge28" class="edge"><title>6&#45;&#45;10</title>
<path fill="none" stroke="black" d="M392.38,-357.033C347.822,-371.511 229.847,-409.843 185.463,-424.264"/>
</g>
<!-- 11 -->
<g id="node27" class="node"><title>11</title>
<ellipse fill="none" stroke="black" cx="19" cy="-224.428" rx="18" ry="18"/>
</g>
<!-- 7&#45;&#45;11 -->
<g id="edge30" class="edge"><title>7&#45;&#45;11</title>
<path fill="none" stroke="black" d="M157.518,-33.7739C129.98,-71.6769 57.0676,-172.033 29.6366,-209.788"/>
</g>
<!-- 3 -->
<g id="node12" class="node"><title>3</title>
<ellipse fill="none" stroke="black" cx="235" cy="-224.428" rx="18" ry="18"/>
</g>
<!-- 2&#45;&#45;3 -->
<g id="edge12" class="edge"><title>2&#45;&#45;3</title>
<path fill="none" stroke="black" d="M251.635,-173.232C248.288,-183.533 244.05,-196.574 240.69,-206.916"/>
</g>
<!-- 8 -->
<g id="node14" class="node"><title>8</title>
<ellipse fill="none" stroke="black" cx="91" cy="-224.428" rx="18" ry="18"/>
</g>
<!-- 2&#45;&#45;8 -->
<g id="edge14" class="edge"><title>2&#45;&#45;8</title>
<path fill="none" stroke="black" d="M240.393,-162.895C208.529,-176.019 139.799,-204.329 107.9,-217.467"/>
</g>
<!-- 4 -->
<g id="node16" class="node"><title>4</title>
<ellipse fill="none" stroke="black" cx="257.249" cy="-292.904" rx="18" ry="18"/>
</g>
<!-- 3&#45;&#45;4 -->
<g id="edge16" class="edge"><title>3&#45;&#45;4</title>
<path fill="none" stroke="black" d="M240.614,-241.708C243.961,-252.009 248.199,-265.05 251.559,-275.392"/>
</g>
<!-- 9 -->
<g id="node18" class="node"><title>9</title>
<ellipse fill="none" stroke="black" cx="163" cy="-224.428" rx="18" ry="18"/>
</g>
<!-- 3&#45;&#45;9 -->
<g id="edge18" class="edge"><title>3&#45;&#45;9</title>
<path fill="none" stroke="black" d="M216.831,-224.428C206,-224.428 192.288,-224.428 181.413,-224.428"/>
</g>
<!-- 8&#45;&#45;9 -->
<g id="edge32" class="edge"><title>8&#45;&#45;9</title>
<path fill="none" stroke="black" d="M109.169,-224.428C120,-224.428 133.712,-224.428 144.587,-224.428"/>
</g>
<!-- 8&#45;&#45;11 -->
<g id="edge34" class="edge"><title>8&#45;&#45;11</title>
<path fill="none" stroke="black" d="M72.8314,-224.428C62,-224.428 48.2876,-224.428 37.4133,-224.428"/>
</g>
<!-- 4&#45;&#45;9 -->
<g id="edge22" class="edge"><title>4&#45;&#45;9</title>
<path fill="none" stroke="black" d="M242.523,-282.205C224.817,-269.341 195.283,-247.883 177.623,-235.052"/>
</g>
<!-- 5 -->
<g id="node20" class="node"><title>5</title>
<ellipse fill="none" stroke="black" cx="279.498" cy="-361.38" rx="18" ry="18"/>
</g>
<!-- 4&#45;&#45;5 -->
<g id="edge20" class="edge"><title>4&#45;&#45;5</title>
<path fill="none" stroke="black" d="M262.864,-310.184C266.211,-320.485 270.448,-333.526 273.808,-343.868"/>
</g>
<!-- 5&#45;&#45;6 -->
<g id="edge24" class="edge"><title>5&#45;&#45;6</title>
<path fill="none" stroke="black" d="M297.609,-359.991C322.494,-358.082 366.988,-354.67 391.791,-352.767"/>
</g>
<!-- 5&#45;&#45;10 -->
<g id="edge26" class="edge"><title>5&#45;&#45;10</title>
<path fill="none" stroke="black" d="M264.03,-370.902C242.776,-383.984 204.774,-407.376 183.589,-420.416"/>
</g>
<!-- 10&#45;&#45;11 -->
<g id="edge36" class="edge"><title>10&#45;&#45;11</title>
<path fill="none" stroke="black" d="M157.518,-415.083C129.98,-377.179 57.0676,-276.824 29.6366,-239.068"/>
</g>
</g>
</svg>
