<?xml version="1.0" encoding="UTF-8" standalone="no"?>
<!DOCTYPE svg PUBLIC "-//W3C//DTD SVG 1.1//EN"
 "http://www.w3.org/Graphics/SVG/1.1/DTD/svg11.dtd">
<!-- Generated by graphviz version 2.26.3 (20100126.1600)
 -->
<!-- Title: _anonymous_0 Pages: 1 -->
<svg width="463pt" height="380pt"
 viewBox="0.00 0.00 463.12 379.60" xmlns="http://www.w3.org/2000/svg" xmlns:xlink="http://www.w3.org/1999/xlink">
<g id="graph1" class="graph" transform="scale(1 1) rotate(0) translate(4 375.597)">
<title>_anonymous_0</title>
<polygon fill="white" stroke="white" points="-4,5 -4,-375.597 460.116,-375.597 460.116,5 -4,5"/>
<!-- 0 -->
<g id="node1" class="node"><title>0</title>
<ellipse fill="none" stroke="black" cx="227.558" cy="-152.539" rx="27" ry="18.3848"/>
<text text-anchor="middle" x="227.558" y="-148.939" font-family="Times Roman,serif" font-size="14.00">0</text>
</g>
<!-- 1 -->
<g id="node3" class="node"><title>1</title>
<ellipse fill="none" stroke="black" cx="227.558" cy="-224.539" rx="27" ry="18.3848"/>
<text text-anchor="middle" x="227.558" y="-220.939" font-family="Times Roman,serif" font-size="14.00">1</text>
</g>
<!-- 0&#45;&#45;1 -->
<g id="edge2" class="edge"><title>0&#45;&#45;1</title>
<path fill="none" stroke="black" d="M227.558,-171.08C227.558,-181.747 227.558,-195.112 227.558,-205.809"/>
</g>
<!-- 5 -->
<g id="node5" class="node"><title>5</title>
<ellipse fill="none" stroke="black" cx="176.646" cy="-101.627" rx="27" ry="18.3848"/>
<text text-anchor="middle" x="176.646" y="-98.027" font-family="Times Roman,serif" font-size="14.00">5</text>
</g>
<!-- 0&#45;&#45;5 -->
<g id="edge4" class="edge"><title>0&#45;&#45;5</title>
<path fill="none" stroke="black" d="M212.283,-137.263C205.839,-130.82 198.353,-123.334 191.911,-116.891"/>
</g>
<!-- 13 -->
<g id="node7" class="node"><title>13</title>
<ellipse fill="none" stroke="black" cx="278.47" cy="-101.627" rx="27" ry="18.3848"/>
<text text-anchor="middle" x="278.47" y="-98.027" font-family="Times Roman,serif" font-size="14.00">13</text>
</g>
<!-- 0&#45;&#45;13 -->
<g id="edge6" class="edge"><title>0&#45;&#45;13</title>
<path fill="none" stroke="black" d="M242.833,-137.263C249.277,-130.82 256.763,-123.334 263.205,-116.891"/>
</g>
<!-- 2 -->
<g id="node9" class="node"><title>2</title>
<ellipse fill="none" stroke="black" cx="329.381" cy="-254.362" rx="27" ry="18.3848"/>
<text text-anchor="middle" x="329.381" y="-250.762" font-family="Times Roman,serif" font-size="14.00">2</text>
</g>
<!-- 1&#45;&#45;2 -->
<g id="edge8" class="edge"><title>1&#45;&#45;2</title>
<path fill="none" stroke="black" d="M252.467,-231.834C268.246,-236.456 288.58,-242.411 304.377,-247.038"/>
</g>
<!-- 10 -->
<g id="node11" class="node"><title>10</title>
<ellipse fill="none" stroke="black" cx="125.735" cy="-254.362" rx="27" ry="18.3848"/>
<text text-anchor="middle" x="125.735" y="-250.762" font-family="Times Roman,serif" font-size="14.00">10</text>
</g>
<!-- 1&#45;&#45;10 -->
<g id="edge10" class="edge"><title>1&#45;&#45;10</title>
<path fill="none" stroke="black" d="M202.649,-231.834C186.87,-236.456 166.536,-242.411 150.739,-247.038"/>
</g>
<!-- 6 -->
<g id="node24" class="node"><title>6</title>
<ellipse fill="none" stroke="black" cx="94.5193" cy="-97.4322" rx="27" ry="18.3848"/>
<text text-anchor="middle" x="94.5193" y="-93.8322" font-family="Times Roman,serif" font-size="14.00">6</text>
</g>
<!-- 5&#45;&#45;6 -->
<g id="edge24" class="edge"><title>5&#45;&#45;6</title>
<path fill="none" stroke="black" d="M149.299,-100.23C140.34,-99.7726 130.397,-99.2647 121.468,-98.8087"/>
</g>
<!-- 3 -->
<g id="node13" class="node"><title>3</title>
<ellipse fill="none" stroke="black" cx="427.116" cy="-235.198" rx="27" ry="18.3848"/>
<text text-anchor="middle" x="427.116" y="-231.598" font-family="Times Roman,serif" font-size="14.00">3</text>
</g>
<!-- 2&#45;&#45;3 -->
<g id="edge12" class="edge"><title>2&#45;&#45;3</title>
<path fill="none" stroke="black" d="M355.572,-249.226C369.595,-246.477 386.819,-243.1 400.853,-240.348"/>
</g>
<!-- 7 -->
<g id="node15" class="node"><title>7</title>
<ellipse fill="none" stroke="black" cx="310.218" cy="-352.097" rx="27" ry="18.3848"/>
<text text-anchor="middle" x="310.218" y="-348.497" font-family="Times Roman,serif" font-size="14.00">7</text>
</g>
<!-- 2&#45;&#45;7 -->
<g id="edge14" class="edge"><title>2&#45;&#45;7</title>
<path fill="none" stroke="black" d="M325.777,-272.745C322.372,-290.108 317.292,-316.019 313.871,-333.464"/>
</g>
<!-- 11 -->
<g id="node27" class="node"><title>11</title>
<ellipse fill="none" stroke="black" cx="144.898" cy="-352.097" rx="27" ry="18.3848"/>
<text text-anchor="middle" x="144.898" y="-348.497" font-family="Times Roman,serif" font-size="14.00">11</text>
</g>
<!-- 10&#45;&#45;11 -->
<g id="edge38" class="edge"><title>10&#45;&#45;11</title>
<path fill="none" stroke="black" d="M129.339,-272.745C132.744,-290.108 137.824,-316.019 141.245,-333.464"/>
</g>
<!-- 4 -->
<g id="node17" class="node"><title>4</title>
<ellipse fill="none" stroke="black" cx="172.452" cy="-19.5" rx="27" ry="18.3848"/>
<text text-anchor="middle" x="172.452" y="-15.9" font-family="Times Roman,serif" font-size="14.00">4</text>
</g>
<!-- 3&#45;&#45;4 -->
<g id="edge16" class="edge"><title>3&#45;&#45;4</title>
<path fill="none" stroke="black" d="M410.011,-220.711C363.618,-181.416 235.787,-73.1449 189.482,-33.9244"/>
</g>
<!-- 12 -->
<g id="node19" class="node"><title>12</title>
<ellipse fill="none" stroke="black" cx="282.664" cy="-19.5" rx="27" ry="18.3848"/>
<text text-anchor="middle" x="282.664" y="-15.9" font-family="Times Roman,serif" font-size="14.00">12</text>
</g>
<!-- 3&#45;&#45;12 -->
<g id="edge18" class="edge"><title>3&#45;&#45;12</title>
<path fill="none" stroke="black" d="M415.781,-218.273C388.778,-177.951 320.896,-76.5889 293.947,-36.3469"/>
</g>
<!-- 8 -->
<g id="node29" class="node"><title>8</title>
<ellipse fill="none" stroke="black" cx="360.597" cy="-97.4322" rx="27" ry="18.3848"/>
<text text-anchor="middle" x="360.597" y="-93.8322" font-family="Times Roman,serif" font-size="14.00">8</text>
</g>
<!-- 7&#45;&#45;8 -->
<g id="edge30" class="edge"><title>7&#45;&#45;8</title>
<path fill="none" stroke="black" d="M313.922,-333.371C323.261,-286.16 347.683,-162.71 356.955,-115.842"/>
</g>
<!-- 4&#45;&#45;5 -->
<g id="edge20" class="edge"><title>4&#45;&#45;5</title>
<path fill="none" stroke="black" d="M173.403,-38.1359C174.09,-51.5765 175.013,-69.6412 175.698,-83.0648"/>
</g>
<!-- 9 -->
<g id="node22" class="node"><title>9</title>
<ellipse fill="none" stroke="black" cx="28" cy="-235.198" rx="27" ry="18.3848"/>
<text text-anchor="middle" x="28" y="-231.598" font-family="Times Roman,serif" font-size="14.00">9</text>
</g>
<!-- 4&#45;&#45;9 -->
<g id="edge22" class="edge"><title>4&#45;&#45;9</title>
<path fill="none" stroke="black" d="M161.117,-36.4255C134.114,-76.747 66.232,-178.109 39.2822,-218.351"/>
</g>
<!-- 12&#45;&#45;13 -->
<g id="edge42" class="edge"><title>12&#45;&#45;13</title>
<path fill="none" stroke="black" d="M281.713,-38.1359C281.026,-51.5765 280.103,-69.6412 279.418,-83.0648"/>
</g>
<!-- 9&#45;&#45;10 -->
<g id="edge36" class="edge"><title>9&#45;&#45;10</title>
<path fill="none" stroke="black" d="M54.1911,-240.334C68.2138,-243.083 85.4375,-246.461 99.4712,-249.212"/>
</g>
<!-- 6&#45;&#45;7 -->
<g id="edge26" class="edge"><title>6&#45;&#45;7</title>
<path fill="none" stroke="black" d="M108.34,-113.75C147.3,-159.748 257.693,-290.084 296.512,-335.915"/>
</g>
<!-- 6&#45;&#45;11 -->
<g id="edge28" class="edge"><title>6&#45;&#45;11</title>
<path fill="none" stroke="black" d="M98.2238,-116.158C107.563,-163.368 131.985,-286.819 141.256,-333.687"/>
</g>
<!-- 11&#45;&#45;12 -->
<g id="edge40" class="edge"><title>11&#45;&#45;12</title>
<path fill="none" stroke="black" d="M152.305,-334.215C176.226,-276.465 251.248,-95.3457 275.221,-37.4703"/>
</g>
<!-- 8&#45;&#45;13 -->
<g id="edge34" class="edge"><title>8&#45;&#45;13</title>
<path fill="none" stroke="black" d="M333.25,-98.829C324.29,-99.2866 314.347,-99.7945 305.418,-100.251"/>
</g>
<!-- 8&#45;&#45;9 -->
<g id="edge32" class="edge"><title>8&#45;&#45;9</title>
<path fill="none" stroke="black" d="M337.473,-107.01C276.632,-132.212 112.58,-200.164 51.4129,-225.5"/>
</g>
</g>
</svg>
