<?xml version="1.0" encoding="UTF-8" standalone="no"?>
<!DOCTYPE svg PUBLIC "-//W3C//DTD SVG 1.1//EN"
 "http://www.w3.org/Graphics/SVG/1.1/DTD/svg11.dtd">
<!-- Generated by graphviz version 2.26.3 (20100126.1600)
 -->
<!-- Title: _anonymous_0 Pages: 1 -->
<svg width="172pt" height="172pt"
 viewBox="0.00 0.00 172.00 171.71" xmlns="http://www.w3.org/2000/svg" xmlns:xlink="http://www.w3.org/1999/xlink">
<g id="graph1" class="graph" transform="scale(1 1) rotate(0) translate(4 167.708)">
<title>_anonymous_0</title>
<polygon fill="white" stroke="white" points="-4,5 -4,-167.708 169,-167.708 169,5 -4,5"/>
<!-- 0 -->
<g id="node1" class="node"><title>0</title>
<ellipse fill="none" stroke="black" cx="100" cy="-81.8538" rx="27" ry="18.3848"/>
<text text-anchor="middle" x="100" y="-78.2538" font-family="Times Roman,serif" font-size="14.00">0</text>
</g>
<!-- 1 -->
<g id="node3" class="node"><title>1</title>
<ellipse fill="none" stroke="black" cx="136" cy="-144.208" rx="27" ry="18.3848"/>
<text text-anchor="middle" x="136" y="-140.608" font-family="Times Roman,serif" font-size="14.00">1</text>
</g>
<!-- 0&#45;&#45;1 -->
<g id="edge2" class="edge"><title>0&#45;&#45;1</title>
<path fill="none" stroke="black" d="M110.028,-99.2228C115.021,-107.871 121.04,-118.296 126.026,-126.932"/>
</g>
<!-- 2 -->
<g id="node5" class="node"><title>2</title>
<ellipse fill="none" stroke="black" cx="28" cy="-81.8538" rx="27" ry="18.3848"/>
<text text-anchor="middle" x="28" y="-78.2538" font-family="Times Roman,serif" font-size="14.00">2</text>
</g>
<!-- 0&#45;&#45;2 -->
<g id="edge4" class="edge"><title>0&#45;&#45;2</title>
<path fill="none" stroke="black" d="M72.7799,-81.8538C67.0454,-81.8538 60.9945,-81.8538 55.2586,-81.8538"/>
</g>
<!-- 3 -->
<g id="node7" class="node"><title>3</title>
<ellipse fill="none" stroke="black" cx="136" cy="-19.5" rx="27" ry="18.3848"/>
<text text-anchor="middle" x="136" y="-15.9" font-family="Times Roman,serif" font-size="14.00">3</text>
</g>
<!-- 0&#45;&#45;3 -->
<g id="edge6" class="edge"><title>0&#45;&#45;3</title>
<path fill="none" stroke="black" d="M110.028,-64.4848C115.021,-55.8364 121.04,-45.4115 126.026,-36.7759"/>
</g>
<!-- 1&#45;&#45;2 -->
<g id="edge8" class="edge"><title>1&#45;&#45;2</title>
<path fill="none" stroke="black" d="M115.177,-132.185C96.0522,-121.144 67.8637,-104.869 48.7596,-93.8394"/>
</g>
<!-- 1&#45;&#45;3 -->
<g id="edge10" class="edge"><title>1&#45;&#45;3</title>
<path fill="none" stroke="black" d="M136,-125.538C136,-102.028 136,-61.8676 136,-38.2976"/>
</g>
<!-- 2&#45;&#45;3 -->
<g id="edge12" class="edge"><title>2&#45;&#45;3</title>
<path fill="none" stroke="black" d="M48.8235,-69.8314C67.9478,-58.7899 96.1363,-42.5153 115.24,-31.4855"/>
</g>
</g>
</svg>
