<?xml version="1.0" encoding="UTF-8" standalone="no"?>
<!DOCTYPE svg PUBLIC "-//W3C//DTD SVG 1.1//EN"
 "http://www.w3.org/Graphics/SVG/1.1/DTD/svg11.dtd">
<!-- Generated by graphviz version 2.26.3 (20100126.1600)
 -->
<!-- Title: _anonymous_0 Pages: 1 -->
<svg width="754pt" height="752pt"
 viewBox="0.00 0.00 753.56 751.72" xmlns="http://www.w3.org/2000/svg" xmlns:xlink="http://www.w3.org/1999/xlink">
<g id="graph1" class="graph" transform="scale(1 1) rotate(0) translate(4 747.722)">
<title>_anonymous_0</title>
<polygon fill="white" stroke="white" points="-4,5 -4,-747.722 750.56,-747.722 750.56,5 -4,5"/>
<!-- 0 -->
<g id="node1" class="node"><title>0</title>
<ellipse fill="none" stroke="black" cx="363.69" cy="-365.757" rx="27" ry="18.3848"/>
<text text-anchor="middle" x="363.69" y="-362.157" font-family="Times Roman,serif" font-size="14.00">0</text>
</g>
<!-- 1 -->
<g id="node3" class="node"><title>1</title>
<ellipse fill="none" stroke="black" cx="395.783" cy="-430.209" rx="27" ry="18.3848"/>
<text text-anchor="middle" x="395.783" y="-426.609" font-family="Times Roman,serif" font-size="14.00">1</text>
</g>
<!-- 0&#45;&#45;1 -->
<g id="edge2" class="edge"><title>0&#45;&#45;1</title>
<path fill="none" stroke="black" d="M372.46,-383.369C376.988,-392.463 382.497,-403.527 387.024,-412.619"/>
</g>
<!-- 2 -->
<g id="node5" class="node"><title>2</title>
<ellipse fill="none" stroke="black" cx="292.916" cy="-352.527" rx="27" ry="18.3848"/>
<text text-anchor="middle" x="292.916" y="-348.927" font-family="Times Roman,serif" font-size="14.00">2</text>
</g>
<!-- 0&#45;&#45;2 -->
<g id="edge4" class="edge"><title>0&#45;&#45;2</title>
<path fill="none" stroke="black" d="M337.336,-360.831C331.363,-359.714 325.021,-358.529 319.056,-357.414"/>
</g>
<!-- 3 -->
<g id="node7" class="node"><title>3</title>
<ellipse fill="none" stroke="black" cx="407.08" cy="-308.3" rx="27" ry="18.3848"/>
<text text-anchor="middle" x="407.08" y="-304.7" font-family="Times Roman,serif" font-size="14.00">3</text>
</g>
<!-- 0&#45;&#45;3 -->
<g id="edge6" class="edge"><title>0&#45;&#45;3</title>
<path fill="none" stroke="black" d="M376.24,-349.138C381.947,-341.582 388.686,-332.657 394.407,-325.081"/>
</g>
<!-- 4 -->
<g id="node9" class="node"><title>4</title>
<ellipse fill="none" stroke="black" cx="470.107" cy="-462.769" rx="27" ry="18.3848"/>
<text text-anchor="middle" x="470.107" y="-459.169" font-family="Times Roman,serif" font-size="14.00">4</text>
</g>
<!-- 1&#45;&#45;4 -->
<g id="edge8" class="edge"><title>1&#45;&#45;4</title>
<path fill="none" stroke="black" d="M418.892,-440.333C427.926,-444.291 438.26,-448.817 447.268,-452.764"/>
</g>
<!-- 26 -->
<g id="node11" class="node"><title>26</title>
<ellipse fill="none" stroke="black" cx="324.283" cy="-504.26" rx="27" ry="18.3848"/>
<text text-anchor="middle" x="324.283" y="-500.66" font-family="Times Roman,serif" font-size="14.00">26</text>
</g>
<!-- 1&#45;&#45;26 -->
<g id="edge10" class="edge"><title>1&#45;&#45;26</title>
<path fill="none" stroke="black" d="M380.62,-445.913C368.486,-458.48 351.552,-476.018 339.424,-488.578"/>
</g>
<!-- 10 -->
<g id="node13" class="node"><title>10</title>
<ellipse fill="none" stroke="black" cx="229.414" cy="-417.776" rx="27" ry="18.3848"/>
<text text-anchor="middle" x="229.414" y="-414.176" font-family="Times Roman,serif" font-size="14.00">10</text>
</g>
<!-- 2&#45;&#45;10 -->
<g id="edge12" class="edge"><title>2&#45;&#45;10</title>
<path fill="none" stroke="black" d="M277.867,-367.99C267.891,-378.241 254.84,-391.651 244.796,-401.971"/>
</g>
<!-- 11 -->
<g id="node15" class="node"><title>11</title>
<ellipse fill="none" stroke="black" cx="257.273" cy="-268.745" rx="27" ry="18.3848"/>
<text text-anchor="middle" x="257.273" y="-265.145" font-family="Times Roman,serif" font-size="14.00">11</text>
</g>
<!-- 2&#45;&#45;11 -->
<g id="edge14" class="edge"><title>2&#45;&#45;11</title>
<path fill="none" stroke="black" d="M285.357,-334.759C279.349,-320.637 270.981,-300.967 264.944,-286.776"/>
</g>
<!-- 18 -->
<g id="node17" class="node"><title>18</title>
<ellipse fill="none" stroke="black" cx="403.097" cy="-227.254" rx="27" ry="18.3848"/>
<text text-anchor="middle" x="403.097" y="-223.654" font-family="Times Roman,serif" font-size="14.00">18</text>
</g>
<!-- 3&#45;&#45;18 -->
<g id="edge16" class="edge"><title>3&#45;&#45;18</title>
<path fill="none" stroke="black" d="M406.156,-289.503C405.513,-276.41 404.658,-259.02 404.016,-245.95"/>
</g>
<!-- 19 -->
<g id="node19" class="node"><title>19</title>
<ellipse fill="none" stroke="black" cx="497.966" cy="-313.738" rx="27" ry="18.3848"/>
<text text-anchor="middle" x="497.966" y="-310.138" font-family="Times Roman,serif" font-size="14.00">19</text>
</g>
<!-- 3&#45;&#45;19 -->
<g id="edge18" class="edge"><title>3&#45;&#45;19</title>
<path fill="none" stroke="black" d="M434.349,-309.932C445.956,-310.626 459.458,-311.434 471.03,-312.127"/>
</g>
<!-- 5 -->
<g id="node21" class="node"><title>5</title>
<ellipse fill="none" stroke="black" cx="547.337" cy="-479.467" rx="27" ry="18.3848"/>
<text text-anchor="middle" x="547.337" y="-475.867" font-family="Times Roman,serif" font-size="14.00">5</text>
</g>
<!-- 4&#45;&#45;5 -->
<g id="edge20" class="edge"><title>4&#45;&#45;5</title>
<path fill="none" stroke="black" d="M496.254,-468.422C504.393,-470.182 513.36,-472.121 521.48,-473.876"/>
</g>
<!-- 33 -->
<g id="node23" class="node"><title>33</title>
<ellipse fill="none" stroke="black" cx="422.801" cy="-573.512" rx="27" ry="18.3848"/>
<text text-anchor="middle" x="422.801" y="-569.912" font-family="Times Roman,serif" font-size="14.00">33</text>
</g>
<!-- 4&#45;&#45;33 -->
<g id="edge22" class="edge"><title>4&#45;&#45;33</title>
<path fill="none" stroke="black" d="M462.507,-480.562C453.731,-501.105 439.374,-534.716 430.54,-555.395"/>
</g>
<!-- 26&#45;&#45;33 -->
<g id="edge100" class="edge"><title>26&#45;&#45;33</title>
<path fill="none" stroke="black" d="M343.278,-517.612C360.723,-529.875 386.437,-547.95 403.864,-560.2"/>
</g>
<!-- 39 -->
<g id="node44" class="node"><title>39</title>
<ellipse fill="none" stroke="black" cx="204.064" cy="-511.275" rx="27" ry="18.3848"/>
<text text-anchor="middle" x="204.064" y="-507.675" font-family="Times Roman,serif" font-size="14.00">39</text>
</g>
<!-- 10&#45;&#45;39 -->
<g id="edge44" class="edge"><title>10&#45;&#45;39</title>
<path fill="none" stroke="black" d="M224.406,-436.249C219.961,-452.64 213.503,-476.461 209.062,-492.841"/>
</g>
<!-- 11&#45;&#45;39 -->
<g id="edge48" class="edge"><title>11&#45;&#45;39</title>
<path fill="none" stroke="black" d="M253.186,-287.373C243.257,-332.629 217.96,-447.939 208.092,-492.916"/>
</g>
<!-- 12 -->
<g id="node46" class="node"><title>12</title>
<ellipse fill="none" stroke="black" cx="204.064" cy="-220.239" rx="27" ry="18.3848"/>
<text text-anchor="middle" x="204.064" y="-216.639" font-family="Times Roman,serif" font-size="14.00">12</text>
</g>
<!-- 11&#45;&#45;12 -->
<g id="edge46" class="edge"><title>11&#45;&#45;12</title>
<path fill="none" stroke="black" d="M241.019,-253.928C234.54,-248.022 227.091,-241.23 220.585,-235.3"/>
</g>
<!-- 45 -->
<g id="node69" class="node"><title>45</title>
<ellipse fill="none" stroke="black" cx="343.76" cy="-150.679" rx="27" ry="18.3848"/>
<text text-anchor="middle" x="343.76" y="-147.079" font-family="Times Roman,serif" font-size="14.00">45</text>
</g>
<!-- 18&#45;&#45;45 -->
<g id="edge72" class="edge"><title>18&#45;&#45;45</title>
<path fill="none" stroke="black" d="M390.222,-210.639C380.269,-197.794 366.557,-180.098 356.61,-167.262"/>
</g>
<!-- 19&#45;&#45;45 -->
<g id="edge76" class="edge"><title>19&#45;&#45;45</title>
<path fill="none" stroke="black" d="M483.18,-298.104C453.78,-267.016 388.276,-197.75 358.728,-166.506"/>
</g>
<!-- 20 -->
<g id="node71" class="node"><title>20</title>
<ellipse fill="none" stroke="black" cx="565.104" cy="-287.729" rx="27" ry="18.3848"/>
<text text-anchor="middle" x="565.104" y="-284.129" font-family="Times Roman,serif" font-size="14.00">20</text>
</g>
<!-- 19&#45;&#45;20 -->
<g id="edge74" class="edge"><title>19&#45;&#45;20</title>
<path fill="none" stroke="black" d="M521.825,-304.495C528.157,-302.042 534.994,-299.394 541.321,-296.942"/>
</g>
<!-- 6 -->
<g id="node25" class="node"><title>6</title>
<ellipse fill="none" stroke="black" cx="632.242" cy="-469.795" rx="27" ry="18.3848"/>
<text text-anchor="middle" x="632.242" y="-466.195" font-family="Times Roman,serif" font-size="14.00">6</text>
</g>
<!-- 5&#45;&#45;6 -->
<g id="edge24" class="edge"><title>5&#45;&#45;6</title>
<path fill="none" stroke="black" d="M574.201,-476.406C584.21,-475.266 595.56,-473.973 605.552,-472.835"/>
</g>
<!-- 29 -->
<g id="node27" class="node"><title>29</title>
<ellipse fill="none" stroke="black" cx="537.249" cy="-595.586" rx="27" ry="18.3848"/>
<text text-anchor="middle" x="537.249" y="-591.986" font-family="Times Roman,serif" font-size="14.00">29</text>
</g>
<!-- 5&#45;&#45;29 -->
<g id="edge26" class="edge"><title>5&#45;&#45;29</title>
<path fill="none" stroke="black" d="M545.716,-498.123C543.834,-519.792 540.746,-555.326 538.866,-576.976"/>
</g>
<!-- 7 -->
<g id="node29" class="node"><title>7</title>
<ellipse fill="none" stroke="black" cx="717.56" cy="-431.907" rx="27" ry="18.3848"/>
<text text-anchor="middle" x="717.56" y="-428.307" font-family="Times Roman,serif" font-size="14.00">7</text>
</g>
<!-- 6&#45;&#45;7 -->
<g id="edge28" class="edge"><title>6&#45;&#45;7</title>
<path fill="none" stroke="black" d="M655.106,-459.642C667.347,-454.206 682.383,-447.529 694.633,-442.088"/>
</g>
<!-- 27 -->
<g id="node31" class="node"><title>27</title>
<ellipse fill="none" stroke="black" cx="669.768" cy="-555.273" rx="27" ry="18.3848"/>
<text text-anchor="middle" x="669.768" y="-551.673" font-family="Times Roman,serif" font-size="14.00">27</text>
</g>
<!-- 6&#45;&#45;27 -->
<g id="edge30" class="edge"><title>6&#45;&#45;27</title>
<path fill="none" stroke="black" d="M640.2,-487.923C646.612,-502.526 655.576,-522.946 661.95,-537.464"/>
</g>
<!-- 30 -->
<g id="node98" class="node"><title>30</title>
<ellipse fill="none" stroke="black" cx="442.505" cy="-642.763" rx="27" ry="18.3848"/>
<text text-anchor="middle" x="442.505" y="-639.163" font-family="Times Roman,serif" font-size="14.00">30</text>
</g>
<!-- 29&#45;&#45;30 -->
<g id="edge108" class="edge"><title>29&#45;&#45;30</title>
<path fill="none" stroke="black" d="M515.274,-606.528C499.968,-614.15 479.64,-624.272 464.36,-631.88"/>
</g>
<!-- 8 -->
<g id="node33" class="node"><title>8</title>
<ellipse fill="none" stroke="black" cx="75.69" cy="-365.757" rx="27" ry="18.3848"/>
<text text-anchor="middle" x="75.69" y="-362.157" font-family="Times Roman,serif" font-size="14.00">8</text>
</g>
<!-- 7&#45;&#45;8 -->
<g id="edge32" class="edge"><title>7&#45;&#45;8</title>
<path fill="none" stroke="black" d="M690.797,-429.149C586.401,-418.39 207.164,-379.307 102.567,-368.527"/>
</g>
<!-- 14 -->
<g id="node35" class="node"><title>14</title>
<ellipse fill="none" stroke="black" cx="28" cy="-235.71" rx="27" ry="18.3848"/>
<text text-anchor="middle" x="28" y="-232.11" font-family="Times Roman,serif" font-size="14.00">14</text>
</g>
<!-- 7&#45;&#45;14 -->
<g id="edge34" class="edge"><title>7&#45;&#45;14</title>
<path fill="none" stroke="black" d="M692.611,-424.808C585.044,-394.203 161.489,-273.691 53.2788,-242.903"/>
</g>
<!-- 28 -->
<g id="node94" class="node"><title>28</title>
<ellipse fill="none" stroke="black" cx="580.638" cy="-653.043" rx="27" ry="18.3848"/>
<text text-anchor="middle" x="580.638" y="-649.443" font-family="Times Roman,serif" font-size="14.00">28</text>
</g>
<!-- 27&#45;&#45;28 -->
<g id="edge102" class="edge"><title>27&#45;&#45;28</title>
<path fill="none" stroke="black" d="M655.448,-570.981C638.914,-589.118 611.863,-618.792 595.219,-637.049"/>
</g>
<!-- 9 -->
<g id="node37" class="node"><title>9</title>
<ellipse fill="none" stroke="black" cx="151.368" cy="-405.447" rx="27" ry="18.3848"/>
<text text-anchor="middle" x="151.368" y="-401.847" font-family="Times Roman,serif" font-size="14.00">9</text>
</g>
<!-- 8&#45;&#45;9 -->
<g id="edge36" class="edge"><title>8&#45;&#45;9</title>
<path fill="none" stroke="black" d="M97.1738,-377.025C107.399,-382.387 119.598,-388.785 129.83,-394.152"/>
</g>
<!-- 38 -->
<g id="node39" class="node"><title>38</title>
<ellipse fill="none" stroke="black" cx="28" cy="-495.804" rx="27" ry="18.3848"/>
<text text-anchor="middle" x="28" y="-492.204" font-family="Times Roman,serif" font-size="14.00">38</text>
</g>
<!-- 8&#45;&#45;38 -->
<g id="edge38" class="edge"><title>8&#45;&#45;38</title>
<path fill="none" stroke="black" d="M69.0589,-383.84C59.9988,-408.546 43.8392,-452.612 34.7285,-477.456"/>
</g>
<!-- 34 -->
<g id="node56" class="node"><title>34</title>
<ellipse fill="none" stroke="black" cx="203.224" cy="-43.4984" rx="27" ry="18.3848"/>
<text text-anchor="middle" x="203.224" y="-39.8984" font-family="Times Roman,serif" font-size="14.00">34</text>
</g>
<!-- 14&#45;&#45;34 -->
<g id="edge58" class="edge"><title>14&#45;&#45;34</title>
<path fill="none" stroke="black" d="M42.3393,-219.981C75.1971,-183.938 155.639,-95.6973 188.687,-59.4453"/>
</g>
<!-- 9&#45;&#45;10 -->
<g id="edge40" class="edge"><title>9&#45;&#45;10</title>
<path fill="none" stroke="black" d="M177.791,-409.621C185.928,-410.907 194.883,-412.321 203.018,-413.606"/>
</g>
<!-- 37 -->
<g id="node42" class="node"><title>37</title>
<ellipse fill="none" stroke="black" cx="95.138" cy="-469.795" rx="27" ry="18.3848"/>
<text text-anchor="middle" x="95.138" y="-466.195" font-family="Times Roman,serif" font-size="14.00">37</text>
</g>
<!-- 9&#45;&#45;37 -->
<g id="edge42" class="edge"><title>9&#45;&#45;37</title>
<path fill="none" stroke="black" d="M137.468,-421.353C128.883,-431.179 117.896,-443.751 109.268,-453.625"/>
</g>
<!-- 37&#45;&#45;38 -->
<g id="edge126" class="edge"><title>37&#45;&#45;38</title>
<path fill="none" stroke="black" d="M71.2786,-479.038C64.9467,-481.491 58.1104,-484.139 51.7826,-486.591"/>
</g>
<!-- 13 -->
<g id="node49" class="node"><title>13</title>
<ellipse fill="none" stroke="black" cx="118.827" cy="-214.145" rx="27" ry="18.3848"/>
<text text-anchor="middle" x="118.827" y="-210.545" font-family="Times Roman,serif" font-size="14.00">13</text>
</g>
<!-- 12&#45;&#45;13 -->
<g id="edge50" class="edge"><title>12&#45;&#45;13</title>
<path fill="none" stroke="black" d="M177.095,-218.311C167.145,-217.599 155.874,-216.793 145.914,-216.081"/>
</g>
<!-- 35 -->
<g id="node51" class="node"><title>35</title>
<ellipse fill="none" stroke="black" cx="235.317" cy="-107.95" rx="27" ry="18.3848"/>
<text text-anchor="middle" x="235.317" y="-104.35" font-family="Times Roman,serif" font-size="14.00">35</text>
</g>
<!-- 12&#45;&#45;35 -->
<g id="edge52" class="edge"><title>12&#45;&#45;35</title>
<path fill="none" stroke="black" d="M209.155,-201.948C214.967,-181.067 224.418,-147.111 230.229,-126.233"/>
</g>
<!-- 13&#45;&#45;14 -->
<g id="edge54" class="edge"><title>13&#45;&#45;14</title>
<path fill="none" stroke="black" d="M93.0429,-220.267C80.6656,-223.206 65.8793,-226.716 53.5347,-229.647"/>
</g>
<!-- 15 -->
<g id="node54" class="node"><title>15</title>
<ellipse fill="none" stroke="black" cx="97.6468" cy="-123.227" rx="27" ry="18.3848"/>
<text text-anchor="middle" x="97.6468" y="-119.627" font-family="Times Roman,serif" font-size="14.00">15</text>
</g>
<!-- 13&#45;&#45;15 -->
<g id="edge56" class="edge"><title>13&#45;&#45;15</title>
<path fill="none" stroke="black" d="M114.541,-195.746C110.866,-179.972 105.6,-157.364 101.927,-141.598"/>
</g>
<!-- 36 -->
<g id="node105" class="node"><title>36</title>
<ellipse fill="none" stroke="black" cx="150.855" cy="-559.782" rx="27" ry="18.3848"/>
<text text-anchor="middle" x="150.855" y="-556.182" font-family="Times Roman,serif" font-size="14.00">36</text>
</g>
<!-- 35&#45;&#45;36 -->
<g id="edge120" class="edge"><title>35&#45;&#45;36</title>
<path fill="none" stroke="black" d="M231.849,-126.505C218.159,-199.738 167.964,-468.257 154.306,-541.322"/>
</g>
<!-- 16 -->
<g id="node58" class="node"><title>16</title>
<ellipse fill="none" stroke="black" cx="537.249" cy="-135.928" rx="27" ry="18.3848"/>
<text text-anchor="middle" x="537.249" y="-132.328" font-family="Times Roman,serif" font-size="14.00">16</text>
</g>
<!-- 15&#45;&#45;16 -->
<g id="edge60" class="edge"><title>15&#45;&#45;16</title>
<path fill="none" stroke="black" d="M124.814,-124.012C203.623,-126.289 431.684,-132.878 510.263,-135.149"/>
</g>
<!-- 22 -->
<g id="node60" class="node"><title>22</title>
<ellipse fill="none" stroke="black" cx="669.768" cy="-176.242" rx="27" ry="18.3848"/>
<text text-anchor="middle" x="669.768" y="-172.642" font-family="Times Roman,serif" font-size="14.00">22</text>
</g>
<!-- 15&#45;&#45;22 -->
<g id="edge62" class="edge"><title>15&#45;&#45;22</title>
<path fill="none" stroke="black" d="M124.474,-125.713C220.574,-134.618 546.992,-164.865 642.999,-173.761"/>
</g>
<!-- 34&#45;&#45;38 -->
<g id="edge118" class="edge"><title>34&#45;&#45;38</title>
<path fill="none" stroke="black" d="M196.247,-61.5085C168.113,-134.131 63.1673,-405.027 34.9971,-477.743"/>
</g>
<!-- 34&#45;&#45;35 -->
<g id="edge116" class="edge"><title>34&#45;&#45;35</title>
<path fill="none" stroke="black" d="M211.994,-61.1102C216.522,-70.2044 222.032,-81.2686 226.558,-90.3598"/>
</g>
<!-- 17 -->
<g id="node62" class="node"><title>17</title>
<ellipse fill="none" stroke="black" cx="459.969" cy="-172.402" rx="27" ry="18.3848"/>
<text text-anchor="middle" x="459.969" y="-168.802" font-family="Times Roman,serif" font-size="14.00">17</text>
</g>
<!-- 16&#45;&#45;17 -->
<g id="edge64" class="edge"><title>16&#45;&#45;17</title>
<path fill="none" stroke="black" d="M514.896,-146.478C504.644,-151.317 492.518,-157.04 482.272,-161.876"/>
</g>
<!-- 44 -->
<g id="node64" class="node"><title>44</title>
<ellipse fill="none" stroke="black" cx="462.209" cy="-19.5" rx="27" ry="18.3848"/>
<text text-anchor="middle" x="462.209" y="-15.9" font-family="Times Roman,serif" font-size="14.00">44</text>
</g>
<!-- 16&#45;&#45;44 -->
<g id="edge66" class="edge"><title>16&#45;&#45;44</title>
<path fill="none" stroke="black" d="M526.176,-118.749C511.989,-96.7362 487.536,-58.7965 473.327,-36.7499"/>
</g>
<!-- 40 -->
<g id="node81" class="node"><title>40</title>
<ellipse fill="none" stroke="black" cx="717.56" cy="-299.607" rx="27" ry="18.3848"/>
<text text-anchor="middle" x="717.56" y="-296.007" font-family="Times Roman,serif" font-size="14.00">40</text>
</g>
<!-- 22&#45;&#45;40 -->
<g id="edge86" class="edge"><title>22&#45;&#45;40</title>
<path fill="none" stroke="black" d="M676.718,-194.18C685.779,-217.569 701.537,-258.247 710.603,-281.647"/>
</g>
<!-- 17&#45;&#45;18 -->
<g id="edge68" class="edge"><title>17&#45;&#45;18</title>
<path fill="none" stroke="black" d="M444.127,-187.681C436.239,-195.289 426.731,-204.46 418.855,-212.057"/>
</g>
<!-- 43 -->
<g id="node67" class="node"><title>43</title>
<ellipse fill="none" stroke="black" cx="442.505" cy="-88.7514" rx="27" ry="18.3848"/>
<text text-anchor="middle" x="442.505" y="-85.1514" font-family="Times Roman,serif" font-size="14.00">43</text>
</g>
<!-- 17&#45;&#45;43 -->
<g id="edge70" class="edge"><title>17&#45;&#45;43</title>
<path fill="none" stroke="black" d="M456.094,-153.837C453.199,-139.975 449.262,-121.114 446.37,-107.264"/>
</g>
<!-- 43&#45;&#45;44 -->
<g id="edge138" class="edge"><title>43&#45;&#45;44</title>
<path fill="none" stroke="black" d="M447.682,-70.5564C450.555,-60.4577 454.119,-47.9316 456.998,-37.8139"/>
</g>
<!-- 21 -->
<g id="node74" class="node"><title>21</title>
<ellipse fill="none" stroke="black" cx="608.553" cy="-214.145" rx="27" ry="18.3848"/>
<text text-anchor="middle" x="608.553" y="-210.545" font-family="Times Roman,serif" font-size="14.00">21</text>
</g>
<!-- 20&#45;&#45;21 -->
<g id="edge78" class="edge"><title>20&#45;&#45;21</title>
<path fill="none" stroke="black" d="M575.401,-270.291C582.327,-258.561 591.419,-243.162 598.33,-231.458"/>
</g>
<!-- 41 -->
<g id="node76" class="node"><title>41</title>
<ellipse fill="none" stroke="black" cx="646.786" cy="-312.837" rx="27" ry="18.3848"/>
<text text-anchor="middle" x="646.786" y="-309.237" font-family="Times Roman,serif" font-size="14.00">41</text>
</g>
<!-- 20&#45;&#45;41 -->
<g id="edge80" class="edge"><title>20&#45;&#45;41</title>
<path fill="none" stroke="black" d="M590.055,-295.399C600.189,-298.514 611.87,-302.104 621.988,-305.215"/>
</g>
<!-- 21&#45;&#45;22 -->
<g id="edge82" class="edge"><title>21&#45;&#45;22</title>
<path fill="none" stroke="black" d="M628.597,-201.734C635.292,-197.589 642.755,-192.967 649.469,-188.81"/>
</g>
<!-- 23 -->
<g id="node79" class="node"><title>23</title>
<ellipse fill="none" stroke="black" cx="203.224" cy="-688.016" rx="27" ry="18.3848"/>
<text text-anchor="middle" x="203.224" y="-684.416" font-family="Times Roman,serif" font-size="14.00">23</text>
</g>
<!-- 21&#45;&#45;23 -->
<g id="edge84" class="edge"><title>21&#45;&#45;23</title>
<path fill="none" stroke="black" d="M594.834,-230.183C532.882,-302.612 279.52,-598.819 217.147,-671.739"/>
</g>
<!-- 42 -->
<g id="node112" class="node"><title>42</title>
<ellipse fill="none" stroke="black" cx="337.117" cy="-78.9858" rx="27" ry="18.3848"/>
<text text-anchor="middle" x="337.117" y="-75.3858" font-family="Times Roman,serif" font-size="14.00">42</text>
</g>
<!-- 41&#45;&#45;42 -->
<g id="edge132" class="edge"><title>41&#45;&#45;42</title>
<path fill="none" stroke="black" d="M628.342,-298.909C573.265,-257.316 410.415,-134.338 355.464,-92.841"/>
</g>
<!-- 23&#45;&#45;27 -->
<g id="edge90" class="edge"><title>23&#45;&#45;27</title>
<path fill="none" stroke="black" d="M228.308,-680.879C309.315,-657.831 563.377,-585.544 644.561,-562.445"/>
</g>
<!-- 24 -->
<g id="node83" class="node"><title>24</title>
<ellipse fill="none" stroke="black" cx="235.317" cy="-623.564" rx="27" ry="18.3848"/>
<text text-anchor="middle" x="235.317" y="-619.964" font-family="Times Roman,serif" font-size="14.00">24</text>
</g>
<!-- 23&#45;&#45;24 -->
<g id="edge88" class="edge"><title>23&#45;&#45;24</title>
<path fill="none" stroke="black" d="M211.994,-670.404C216.522,-661.31 222.032,-650.246 226.558,-641.155"/>
</g>
<!-- 40&#45;&#45;44 -->
<g id="edge130" class="edge"><title>40&#45;&#45;44</title>
<path fill="none" stroke="black" d="M703.1,-283.745C658.261,-234.559 521.88,-84.9567 476.827,-35.5356"/>
</g>
<!-- 40&#45;&#45;41 -->
<g id="edge128" class="edge"><title>40&#45;&#45;41</title>
<path fill="none" stroke="black" d="M691.207,-304.534C685.233,-305.65 678.891,-306.836 672.926,-307.951"/>
</g>
<!-- 25 -->
<g id="node86" class="node"><title>25</title>
<ellipse fill="none" stroke="black" cx="304.579" cy="-573.512" rx="27" ry="18.3848"/>
<text text-anchor="middle" x="304.579" y="-569.912" font-family="Times Roman,serif" font-size="14.00">25</text>
</g>
<!-- 24&#45;&#45;25 -->
<g id="edge92" class="edge"><title>24&#45;&#45;25</title>
<path fill="none" stroke="black" d="M254.243,-609.887C264.016,-602.825 275.906,-594.232 285.676,-587.172"/>
</g>
<!-- 32 -->
<g id="node88" class="node"><title>32</title>
<ellipse fill="none" stroke="black" cx="330.473" cy="-724.222" rx="27" ry="18.3848"/>
<text text-anchor="middle" x="330.473" y="-720.622" font-family="Times Roman,serif" font-size="14.00">32</text>
</g>
<!-- 24&#45;&#45;32 -->
<g id="edge94" class="edge"><title>24&#45;&#45;32</title>
<path fill="none" stroke="black" d="M250.185,-639.292C268.062,-658.202 297.88,-689.744 315.71,-708.604"/>
</g>
<!-- 25&#45;&#45;26 -->
<g id="edge96" class="edge"><title>25&#45;&#45;26</title>
<path fill="none" stroke="black" d="M309.756,-555.317C312.629,-545.218 316.193,-532.692 319.072,-522.574"/>
</g>
<!-- 31 -->
<g id="node91" class="node"><title>31</title>
<ellipse fill="none" stroke="black" cx="337.117" cy="-652.529" rx="27" ry="18.3848"/>
<text text-anchor="middle" x="337.117" y="-648.929" font-family="Times Roman,serif" font-size="14.00">31</text>
</g>
<!-- 25&#45;&#45;31 -->
<g id="edge98" class="edge"><title>25&#45;&#45;31</title>
<path fill="none" stroke="black" d="M311.962,-591.442C317.287,-604.373 324.444,-621.754 329.763,-634.669"/>
</g>
<!-- 31&#45;&#45;32 -->
<g id="edge114" class="edge"><title>31&#45;&#45;32</title>
<path fill="none" stroke="black" d="M335.371,-671.365C334.395,-681.903 333.182,-694.994 332.207,-705.511"/>
</g>
<!-- 28&#45;&#45;29 -->
<g id="edge104" class="edge"><title>28&#45;&#45;29</title>
<path fill="none" stroke="black" d="M568.088,-636.424C562.382,-628.868 555.642,-619.943 549.921,-612.367"/>
</g>
<!-- 28&#45;&#45;32 -->
<g id="edge106" class="edge"><title>28&#45;&#45;32</title>
<path fill="none" stroke="black" d="M555.275,-660.26C507.203,-673.938 403.368,-703.481 355.532,-717.092"/>
</g>
<!-- 30&#45;&#45;33 -->
<g id="edge112" class="edge"><title>30&#45;&#45;33</title>
<path fill="none" stroke="black" d="M437.328,-624.568C434.455,-614.469 430.891,-601.943 428.012,-591.825"/>
</g>
<!-- 30&#45;&#45;31 -->
<g id="edge110" class="edge"><title>30&#45;&#45;31</title>
<path fill="none" stroke="black" d="M415.638,-645.253C399.782,-646.722 379.782,-648.575 363.934,-650.044"/>
</g>
<!-- 36&#45;&#45;37 -->
<g id="edge122" class="edge"><title>36&#45;&#45;37</title>
<path fill="none" stroke="black" d="M140.113,-542.431C130.246,-526.497 115.704,-503.01 105.848,-487.092"/>
</g>
<!-- 36&#45;&#45;39 -->
<g id="edge124" class="edge"><title>36&#45;&#45;39</title>
<path fill="none" stroke="black" d="M167.109,-544.965C173.588,-539.058 181.038,-532.267 187.543,-526.337"/>
</g>
<!-- 42&#45;&#45;43 -->
<g id="edge134" class="edge"><title>42&#45;&#45;43</title>
<path fill="none" stroke="black" d="M363.983,-81.4753C379.839,-82.9446 399.84,-84.798 415.687,-86.2664"/>
</g>
<!-- 42&#45;&#45;45 -->
<g id="edge136" class="edge"><title>42&#45;&#45;45</title>
<path fill="none" stroke="black" d="M338.862,-97.8222C339.839,-108.36 341.052,-121.451 342.026,-131.968"/>
</g>
</g>
</svg>
