<?xml version="1.0" encoding="UTF-8" standalone="no"?>
<!DOCTYPE svg PUBLIC "-//W3C//DTD SVG 1.1//EN"
 "http://www.w3.org/Graphics/SVG/1.1/DTD/svg11.dtd">
<!-- Generated by graphviz version 2.26.3 (20100126.1600)
 -->
<!-- Title: _anonymous_0 Pages: 1 -->
<svg width="530pt" height="513pt"
 viewBox="0.00 0.00 529.64 512.64" xmlns="http://www.w3.org/2000/svg" xmlns:xlink="http://www.w3.org/1999/xlink">
<g id="graph1" class="graph" transform="scale(1 1) rotate(0) translate(4 508.635)">
<title>_anonymous_0</title>
<polygon fill="white" stroke="white" points="-4,5 -4,-508.635 526.635,-508.635 526.635,5 -4,5"/>
<!-- 0 -->
<g id="node1" class="node"><title>0</title>
<ellipse fill="none" stroke="black" cx="227.558" cy="-219.058" rx="27" ry="18.3848"/>
<text text-anchor="middle" x="227.558" y="-215.458" font-family="Times Roman,serif" font-size="14.00">0</text>
</g>
<!-- 1 -->
<g id="node3" class="node"><title>1</title>
<ellipse fill="none" stroke="black" cx="227.558" cy="-291.058" rx="27" ry="18.3848"/>
<text text-anchor="middle" x="227.558" y="-287.458" font-family="Times Roman,serif" font-size="14.00">1</text>
</g>
<!-- 0&#45;&#45;1 -->
<g id="edge2" class="edge"><title>0&#45;&#45;1</title>
<path fill="none" stroke="black" d="M227.558,-237.6C227.558,-248.266 227.558,-261.631 227.558,-272.329"/>
</g>
<!-- 5 -->
<g id="node5" class="node"><title>5</title>
<ellipse fill="none" stroke="black" cx="176.646" cy="-168.146" rx="27" ry="18.3848"/>
<text text-anchor="middle" x="176.646" y="-164.546" font-family="Times Roman,serif" font-size="14.00">5</text>
</g>
<!-- 0&#45;&#45;5 -->
<g id="edge4" class="edge"><title>0&#45;&#45;5</title>
<path fill="none" stroke="black" d="M212.283,-203.783C205.839,-197.339 198.353,-189.853 191.911,-183.411"/>
</g>
<!-- 17 -->
<g id="node7" class="node"><title>17</title>
<ellipse fill="none" stroke="black" cx="278.47" cy="-168.146" rx="27" ry="18.3848"/>
<text text-anchor="middle" x="278.47" y="-164.546" font-family="Times Roman,serif" font-size="14.00">17</text>
</g>
<!-- 0&#45;&#45;17 -->
<g id="edge6" class="edge"><title>0&#45;&#45;17</title>
<path fill="none" stroke="black" d="M242.833,-203.783C249.277,-197.339 256.763,-189.853 263.205,-183.411"/>
</g>
<!-- 2 -->
<g id="node9" class="node"><title>2</title>
<ellipse fill="none" stroke="black" cx="329.381" cy="-320.881" rx="27" ry="18.3848"/>
<text text-anchor="middle" x="329.381" y="-317.281" font-family="Times Roman,serif" font-size="14.00">2</text>
</g>
<!-- 1&#45;&#45;2 -->
<g id="edge8" class="edge"><title>1&#45;&#45;2</title>
<path fill="none" stroke="black" d="M252.467,-298.354C268.246,-302.975 288.58,-308.931 304.377,-313.558"/>
</g>
<!-- 8 -->
<g id="node11" class="node"><title>8</title>
<ellipse fill="none" stroke="black" cx="125.735" cy="-320.881" rx="27" ry="18.3848"/>
<text text-anchor="middle" x="125.735" y="-317.281" font-family="Times Roman,serif" font-size="14.00">8</text>
</g>
<!-- 1&#45;&#45;8 -->
<g id="edge10" class="edge"><title>1&#45;&#45;8</title>
<path fill="none" stroke="black" d="M202.649,-298.354C186.87,-302.975 166.536,-308.931 150.739,-313.558"/>
</g>
<!-- 6 -->
<g id="node24" class="node"><title>6</title>
<ellipse fill="none" stroke="black" cx="94.5193" cy="-163.952" rx="27" ry="18.3848"/>
<text text-anchor="middle" x="94.5193" y="-160.352" font-family="Times Roman,serif" font-size="14.00">6</text>
</g>
<!-- 5&#45;&#45;6 -->
<g id="edge24" class="edge"><title>5&#45;&#45;6</title>
<path fill="none" stroke="black" d="M149.299,-166.75C140.34,-166.292 130.397,-165.784 121.468,-165.328"/>
</g>
<!-- 3 -->
<g id="node13" class="node"><title>3</title>
<ellipse fill="none" stroke="black" cx="427.116" cy="-301.718" rx="27" ry="18.3848"/>
<text text-anchor="middle" x="427.116" y="-298.118" font-family="Times Roman,serif" font-size="14.00">3</text>
</g>
<!-- 2&#45;&#45;3 -->
<g id="edge12" class="edge"><title>2&#45;&#45;3</title>
<path fill="none" stroke="black" d="M355.572,-315.746C369.595,-312.996 386.819,-309.619 400.853,-306.867"/>
</g>
<!-- 13 -->
<g id="node15" class="node"><title>13</title>
<ellipse fill="none" stroke="black" cx="310.218" cy="-418.616" rx="27" ry="18.3848"/>
<text text-anchor="middle" x="310.218" y="-415.016" font-family="Times Roman,serif" font-size="14.00">13</text>
</g>
<!-- 2&#45;&#45;13 -->
<g id="edge14" class="edge"><title>2&#45;&#45;13</title>
<path fill="none" stroke="black" d="M325.777,-339.264C322.372,-356.627 317.292,-382.539 313.871,-399.983"/>
</g>
<!-- 9 -->
<g id="node33" class="node"><title>9</title>
<ellipse fill="none" stroke="black" cx="144.898" cy="-418.616" rx="27" ry="18.3848"/>
<text text-anchor="middle" x="144.898" y="-415.016" font-family="Times Roman,serif" font-size="14.00">9</text>
</g>
<!-- 8&#45;&#45;9 -->
<g id="edge34" class="edge"><title>8&#45;&#45;9</title>
<path fill="none" stroke="black" d="M129.339,-339.264C132.744,-356.627 137.824,-382.539 141.245,-399.983"/>
</g>
<!-- 4 -->
<g id="node17" class="node"><title>4</title>
<ellipse fill="none" stroke="black" cx="172.452" cy="-86.0193" rx="27" ry="18.3848"/>
<text text-anchor="middle" x="172.452" y="-82.4193" font-family="Times Roman,serif" font-size="14.00">4</text>
</g>
<!-- 3&#45;&#45;4 -->
<g id="edge16" class="edge"><title>3&#45;&#45;4</title>
<path fill="none" stroke="black" d="M410.011,-287.23C363.618,-247.936 235.787,-139.664 189.482,-100.444"/>
</g>
<!-- 10 -->
<g id="node19" class="node"><title>10</title>
<ellipse fill="none" stroke="black" cx="493.635" cy="-329.271" rx="27" ry="18.3848"/>
<text text-anchor="middle" x="493.635" y="-325.671" font-family="Times Roman,serif" font-size="14.00">10</text>
</g>
<!-- 3&#45;&#45;10 -->
<g id="edge18" class="edge"><title>3&#45;&#45;10</title>
<path fill="none" stroke="black" d="M450.381,-311.354C456.825,-314.024 463.821,-316.921 470.271,-319.593"/>
</g>
<!-- 14 -->
<g id="node31" class="node"><title>14</title>
<ellipse fill="none" stroke="black" cx="337.771" cy="-485.135" rx="27" ry="18.3848"/>
<text text-anchor="middle" x="337.771" y="-481.535" font-family="Times Roman,serif" font-size="14.00">14</text>
</g>
<!-- 13&#45;&#45;14 -->
<g id="edge48" class="edge"><title>13&#45;&#45;14</title>
<path fill="none" stroke="black" d="M317.601,-436.442C321.555,-445.986 326.41,-457.709 330.367,-467.26"/>
</g>
<!-- 4&#45;&#45;5 -->
<g id="edge20" class="edge"><title>4&#45;&#45;5</title>
<path fill="none" stroke="black" d="M173.403,-104.655C174.09,-118.096 175.013,-136.161 175.698,-149.584"/>
</g>
<!-- 15 -->
<g id="node22" class="node"><title>15</title>
<ellipse fill="none" stroke="black" cx="144.898" cy="-19.5" rx="27" ry="18.3848"/>
<text text-anchor="middle" x="144.898" y="-15.9" font-family="Times Roman,serif" font-size="14.00">15</text>
</g>
<!-- 4&#45;&#45;15 -->
<g id="edge22" class="edge"><title>4&#45;&#45;15</title>
<path fill="none" stroke="black" d="M165.068,-68.1934C161.115,-58.6493 156.259,-46.9267 152.302,-37.3752"/>
</g>
<!-- 11 -->
<g id="node28" class="node"><title>11</title>
<ellipse fill="none" stroke="black" cx="28" cy="-136.398" rx="27" ry="18.3848"/>
<text text-anchor="middle" x="28" y="-132.798" font-family="Times Roman,serif" font-size="14.00">11</text>
</g>
<!-- 10&#45;&#45;11 -->
<g id="edge40" class="edge"><title>10&#45;&#45;11</title>
<path fill="none" stroke="black" d="M470.225,-319.574C390.556,-286.574 130.502,-178.856 51.1805,-146"/>
</g>
<!-- 16 -->
<g id="node36" class="node"><title>16</title>
<ellipse fill="none" stroke="black" cx="282.664" cy="-86.0193" rx="27" ry="18.3848"/>
<text text-anchor="middle" x="282.664" y="-82.4193" font-family="Times Roman,serif" font-size="14.00">16</text>
</g>
<!-- 15&#45;&#45;16 -->
<g id="edge52" class="edge"><title>15&#45;&#45;16</title>
<path fill="none" stroke="black" d="M167.033,-30.1875C192.741,-42.6007 234.9,-62.9565 260.585,-75.3584"/>
</g>
<!-- 7 -->
<g id="node26" class="node"><title>7</title>
<ellipse fill="none" stroke="black" cx="28" cy="-301.718" rx="27" ry="18.3848"/>
<text text-anchor="middle" x="28" y="-298.118" font-family="Times Roman,serif" font-size="14.00">7</text>
</g>
<!-- 6&#45;&#45;7 -->
<g id="edge26" class="edge"><title>6&#45;&#45;7</title>
<path fill="none" stroke="black" d="M85.9593,-181.68C73.1867,-208.133 49.2806,-257.644 36.5272,-284.057"/>
</g>
<!-- 6&#45;&#45;11 -->
<g id="edge28" class="edge"><title>6&#45;&#45;11</title>
<path fill="none" stroke="black" d="M71.2541,-154.315C64.8101,-151.646 57.8142,-148.748 51.3645,-146.076"/>
</g>
<!-- 7&#45;&#45;8 -->
<g id="edge30" class="edge"><title>7&#45;&#45;8</title>
<path fill="none" stroke="black" d="M54.1911,-306.853C68.2138,-309.603 85.4375,-312.98 99.4712,-315.732"/>
</g>
<!-- 7&#45;&#45;14 -->
<g id="edge32" class="edge"><title>7&#45;&#45;14</title>
<path fill="none" stroke="black" d="M48.8059,-314.037C105.238,-347.451 260.73,-439.519 317.055,-472.87"/>
</g>
<!-- 12 -->
<g id="node39" class="node"><title>12</title>
<ellipse fill="none" stroke="black" cx="360.597" cy="-163.952" rx="27" ry="18.3848"/>
<text text-anchor="middle" x="360.597" y="-160.352" font-family="Times Roman,serif" font-size="14.00">12</text>
</g>
<!-- 11&#45;&#45;12 -->
<g id="edge42" class="edge"><title>11&#45;&#45;12</title>
<path fill="none" stroke="black" d="M54.936,-138.63C117.259,-143.793 270.841,-156.516 333.409,-161.699"/>
</g>
<!-- 14&#45;&#45;15 -->
<g id="edge50" class="edge"><title>14&#45;&#45;15</title>
<path fill="none" stroke="black" d="M330.328,-467.167C299.625,-393.043 182.981,-111.439 152.319,-37.4146"/>
</g>
<!-- 9&#45;&#45;10 -->
<g id="edge36" class="edge"><title>9&#45;&#45;10</title>
<path fill="none" stroke="black" d="M170.26,-412.119C234.523,-395.655 403.229,-352.433 467.898,-335.865"/>
</g>
<!-- 9&#45;&#45;16 -->
<g id="edge38" class="edge"><title>9&#45;&#45;16</title>
<path fill="none" stroke="black" d="M152.305,-400.734C176.226,-342.984 251.248,-161.865 275.221,-103.99"/>
</g>
<!-- 16&#45;&#45;17 -->
<g id="edge54" class="edge"><title>16&#45;&#45;17</title>
<path fill="none" stroke="black" d="M281.713,-104.655C281.026,-118.096 280.103,-136.161 279.418,-149.584"/>
</g>
<!-- 12&#45;&#45;17 -->
<g id="edge46" class="edge"><title>12&#45;&#45;17</title>
<path fill="none" stroke="black" d="M333.25,-165.348C324.29,-165.806 314.347,-166.314 305.418,-166.77"/>
</g>
<!-- 12&#45;&#45;13 -->
<g id="edge44" class="edge"><title>12&#45;&#45;13</title>
<path fill="none" stroke="black" d="M356.892,-182.678C347.553,-229.888 323.131,-353.338 313.86,-400.206"/>
</g>
</g>
</svg>
