<?xml version="1.0" encoding="UTF-8" standalone="no"?>
<!DOCTYPE svg PUBLIC "-//W3C//DTD SVG 1.1//EN"
 "http://www.w3.org/Graphics/SVG/1.1/DTD/svg11.dtd">
<!-- Generated by graphviz version 2.26.3 (20100126.1600)
 -->
<!-- Title: _anonymous_0 Pages: 1 -->
<svg width="313pt" height="335pt"
 viewBox="0.00 0.00 313.42 335.00" xmlns="http://www.w3.org/2000/svg" xmlns:xlink="http://www.w3.org/1999/xlink">
<g id="graph1" class="graph" transform="scale(1 1) rotate(0) translate(4 331)">
<title>_anonymous_0</title>
<polygon fill="white" stroke="white" points="-4,5 -4,-331 310.415,-331 310.415,5 -4,5"/>
<!-- 0 -->
<g id="node1" class="node"><title>0</title>
<ellipse fill="none" stroke="black" cx="152.708" cy="-163.5" rx="27" ry="18.3848"/>
<text text-anchor="middle" x="152.708" y="-159.9" font-family="Times Roman,serif" font-size="14.00">0</text>
</g>
<!-- 1 -->
<g id="node3" class="node"><title>1</title>
<ellipse fill="none" stroke="black" cx="188.708" cy="-225.854" rx="27" ry="18.3848"/>
<text text-anchor="middle" x="188.708" y="-222.254" font-family="Times Roman,serif" font-size="14.00">1</text>
</g>
<!-- 0&#45;&#45;1 -->
<g id="edge2" class="edge"><title>0&#45;&#45;1</title>
<path fill="none" stroke="black" d="M162.736,-180.869C167.729,-189.517 173.748,-199.942 178.733,-208.578"/>
</g>
<!-- 4 -->
<g id="node5" class="node"><title>4</title>
<ellipse fill="none" stroke="black" cx="80.7077" cy="-163.5" rx="27" ry="18.3848"/>
<text text-anchor="middle" x="80.7077" y="-159.9" font-family="Times Roman,serif" font-size="14.00">4</text>
</g>
<!-- 0&#45;&#45;4 -->
<g id="edge4" class="edge"><title>0&#45;&#45;4</title>
<path fill="none" stroke="black" d="M125.488,-163.5C119.753,-163.5 113.702,-163.5 107.966,-163.5"/>
</g>
<!-- 5 -->
<g id="node7" class="node"><title>5</title>
<ellipse fill="none" stroke="black" cx="188.708" cy="-101.146" rx="27" ry="18.3848"/>
<text text-anchor="middle" x="188.708" y="-97.5462" font-family="Times Roman,serif" font-size="14.00">5</text>
</g>
<!-- 0&#45;&#45;5 -->
<g id="edge6" class="edge"><title>0&#45;&#45;5</title>
<path fill="none" stroke="black" d="M162.736,-146.131C167.729,-137.483 173.748,-127.058 178.733,-118.422"/>
</g>
<!-- 2 -->
<g id="node9" class="node"><title>2</title>
<ellipse fill="none" stroke="black" cx="277.415" cy="-235.5" rx="27" ry="18.3848"/>
<text text-anchor="middle" x="277.415" y="-231.9" font-family="Times Roman,serif" font-size="14.00">2</text>
</g>
<!-- 1&#45;&#45;2 -->
<g id="edge8" class="edge"><title>1&#45;&#45;2</title>
<path fill="none" stroke="black" d="M215.805,-228.8C226.81,-229.997 239.495,-231.377 250.484,-232.571"/>
</g>
<!-- 6 -->
<g id="node11" class="node"><title>6</title>
<ellipse fill="none" stroke="black" cx="152.708" cy="-307.5" rx="27" ry="18.3848"/>
<text text-anchor="middle" x="152.708" y="-303.9" font-family="Times Roman,serif" font-size="14.00">6</text>
</g>
<!-- 1&#45;&#45;6 -->
<g id="edge10" class="edge"><title>1&#45;&#45;6</title>
<path fill="none" stroke="black" d="M180.896,-243.57C174.899,-257.171 166.652,-275.874 160.628,-289.537"/>
</g>
<!-- 9 -->
<g id="node20" class="node"><title>9</title>
<ellipse fill="none" stroke="black" cx="28" cy="-235.5" rx="27" ry="18.3848"/>
<text text-anchor="middle" x="28" y="-231.9" font-family="Times Roman,serif" font-size="14.00">9</text>
</g>
<!-- 4&#45;&#45;9 -->
<g id="edge20" class="edge"><title>4&#45;&#45;9</title>
<path fill="none" stroke="black" d="M68.483,-180.199C59.9679,-191.831 48.6589,-207.279 40.1584,-218.891"/>
</g>
<!-- 7 -->
<g id="node15" class="node"><title>7</title>
<ellipse fill="none" stroke="black" cx="152.708" cy="-19.5" rx="27" ry="18.3848"/>
<text text-anchor="middle" x="152.708" y="-15.9" font-family="Times Roman,serif" font-size="14.00">7</text>
</g>
<!-- 5&#45;&#45;7 -->
<g id="edge22" class="edge"><title>5&#45;&#45;7</title>
<path fill="none" stroke="black" d="M180.896,-83.4302C174.899,-69.8292 166.652,-51.1257 160.628,-37.4634"/>
</g>
<!-- 8 -->
<g id="node18" class="node"><title>8</title>
<ellipse fill="none" stroke="black" cx="277.415" cy="-91.5" rx="27" ry="18.3848"/>
<text text-anchor="middle" x="277.415" y="-87.9" font-family="Times Roman,serif" font-size="14.00">8</text>
</g>
<!-- 5&#45;&#45;8 -->
<g id="edge24" class="edge"><title>5&#45;&#45;8</title>
<path fill="none" stroke="black" d="M215.805,-98.1996C226.81,-97.0028 239.495,-95.6235 250.484,-94.4285"/>
</g>
<!-- 3 -->
<g id="node13" class="node"><title>3</title>
<ellipse fill="none" stroke="black" cx="28" cy="-91.5" rx="27" ry="18.3848"/>
<text text-anchor="middle" x="28" y="-87.9" font-family="Times Roman,serif" font-size="14.00">3</text>
</g>
<!-- 2&#45;&#45;3 -->
<g id="edge12" class="edge"><title>2&#45;&#45;3</title>
<path fill="none" stroke="black" d="M256.579,-223.47C209.631,-196.364 96.0105,-130.766 48.9521,-103.597"/>
</g>
<!-- 2&#45;&#45;7 -->
<g id="edge14" class="edge"><title>2&#45;&#45;7</title>
<path fill="none" stroke="black" d="M267.421,-218.189C244.07,-177.745 186.147,-77.4189 162.75,-36.8935"/>
</g>
<!-- 6&#45;&#45;8 -->
<g id="edge26" class="edge"><title>6&#45;&#45;8</title>
<path fill="none" stroke="black" d="M162.702,-290.189C186.053,-249.745 243.976,-149.419 267.373,-108.894"/>
</g>
<!-- 6&#45;&#45;9 -->
<g id="edge28" class="edge"><title>6&#45;&#45;9</title>
<path fill="none" stroke="black" d="M131.834,-295.449C108.814,-282.158 71.9889,-260.897 48.9414,-247.59"/>
</g>
<!-- 3&#45;&#45;4 -->
<g id="edge16" class="edge"><title>3&#45;&#45;4</title>
<path fill="none" stroke="black" d="M40.2247,-108.199C48.7397,-119.831 60.0488,-135.279 68.5493,-146.891"/>
</g>
<!-- 3&#45;&#45;8 -->
<g id="edge18" class="edge"><title>3&#45;&#45;8</title>
<path fill="none" stroke="black" d="M55.1666,-91.5C103.144,-91.5 202.329,-91.5 250.282,-91.5"/>
</g>
<!-- 7&#45;&#45;9 -->
<g id="edge30" class="edge"><title>7&#45;&#45;9</title>
<path fill="none" stroke="black" d="M142.713,-36.8111C119.363,-77.2552 61.4395,-177.581 38.0421,-218.106"/>
</g>
</g>
</svg>
