<?xml version="1.0" encoding="UTF-8" standalone="no"?>
<!DOCTYPE svg PUBLIC "-//W3C//DTD SVG 1.1//EN"
 "http://www.w3.org/Graphics/SVG/1.1/DTD/svg11.dtd">
<!-- Generated by graphviz version 2.26.3 (20100126.1600)
 -->
<!-- Title: _anonymous_0 Pages: 1 -->
<svg width="403pt" height="300pt"
 viewBox="0.00 0.00 402.61 299.97" xmlns="http://www.w3.org/2000/svg" xmlns:xlink="http://www.w3.org/1999/xlink">
<g id="graph1" class="graph" transform="scale(1 1) rotate(0) translate(4 295.973)">
<title>_anonymous_0</title>
<polygon fill="white" stroke="white" points="-4,5 -4,-295.973 399.609,-295.973 399.609,5 -4,5"/>
<!-- 0 -->
<g id="node1" class="node"><title>0</title>
<ellipse fill="none" stroke="black" cx="172" cy="-132.084" rx="27" ry="18.3848"/>
<text text-anchor="middle" x="172" y="-128.484" font-family="Times Roman,serif" font-size="14.00">0</text>
</g>
<!-- 1 -->
<g id="node3" class="node"><title>1</title>
<ellipse fill="none" stroke="black" cx="216.891" cy="-188.376" rx="27" ry="18.3848"/>
<text text-anchor="middle" x="216.891" y="-184.776" font-family="Times Roman,serif" font-size="14.00">1</text>
</g>
<!-- 0&#45;&#45;1 -->
<g id="edge2" class="edge"><title>0&#45;&#45;1</title>
<path fill="none" stroke="black" d="M184.984,-148.366C190.888,-155.769 197.861,-164.513 203.781,-171.935"/>
</g>
<!-- 5 -->
<g id="node5" class="node"><title>5</title>
<ellipse fill="none" stroke="black" cx="127.109" cy="-188.376" rx="27" ry="18.3848"/>
<text text-anchor="middle" x="127.109" y="-184.776" font-family="Times Roman,serif" font-size="14.00">5</text>
</g>
<!-- 0&#45;&#45;5 -->
<g id="edge4" class="edge"><title>0&#45;&#45;5</title>
<path fill="none" stroke="black" d="M159.016,-148.366C153.112,-155.769 146.139,-164.513 140.219,-171.935"/>
</g>
<!-- 7 -->
<g id="node7" class="node"><title>7</title>
<ellipse fill="none" stroke="black" cx="107.13" cy="-100.844" rx="27" ry="18.3848"/>
<text text-anchor="middle" x="107.13" y="-97.2441" font-family="Times Roman,serif" font-size="14.00">7</text>
</g>
<!-- 0&#45;&#45;7 -->
<g id="edge6" class="edge"><title>0&#45;&#45;7</title>
<path fill="none" stroke="black" d="M149.676,-121.333C143.079,-118.156 135.862,-114.68 129.276,-111.509"/>
</g>
<!-- 8 -->
<g id="node9" class="node"><title>8</title>
<ellipse fill="none" stroke="black" cx="188.022" cy="-61.8889" rx="27" ry="18.3848"/>
<text text-anchor="middle" x="188.022" y="-58.2889" font-family="Times Roman,serif" font-size="14.00">8</text>
</g>
<!-- 0&#45;&#45;8 -->
<g id="edge8" class="edge"><title>0&#45;&#45;8</title>
<path fill="none" stroke="black" d="M176.209,-113.641C178.546,-103.405 181.444,-90.7078 183.785,-80.4523"/>
</g>
<!-- 11 -->
<g id="node11" class="node"><title>11</title>
<ellipse fill="none" stroke="black" cx="236.87" cy="-100.844" rx="27" ry="18.3848"/>
<text text-anchor="middle" x="236.87" y="-97.2441" font-family="Times Roman,serif" font-size="14.00">11</text>
</g>
<!-- 0&#45;&#45;11 -->
<g id="edge10" class="edge"><title>0&#45;&#45;11</title>
<path fill="none" stroke="black" d="M194.324,-121.333C200.921,-118.156 208.138,-114.68 214.724,-111.509"/>
</g>
<!-- 1&#45;&#45;5 -->
<g id="edge14" class="edge"><title>1&#45;&#45;5</title>
<path fill="none" stroke="black" d="M189.466,-188.376C178.327,-188.376 165.488,-188.376 154.366,-188.376"/>
</g>
<!-- 1&#45;&#45;8 -->
<g id="edge18" class="edge"><title>1&#45;&#45;8</title>
<path fill="none" stroke="black" d="M212.693,-169.983C207.22,-146.002 197.7,-104.295 192.224,-80.3034"/>
</g>
<!-- 2 -->
<g id="node13" class="node"><title>2</title>
<ellipse fill="none" stroke="black" cx="301.74" cy="-194.563" rx="27" ry="18.3848"/>
<text text-anchor="middle" x="301.74" y="-190.963" font-family="Times Roman,serif" font-size="14.00">2</text>
</g>
<!-- 1&#45;&#45;2 -->
<g id="edge12" class="edge"><title>1&#45;&#45;2</title>
<path fill="none" stroke="black" d="M244.205,-190.367C253.991,-191.081 265.01,-191.885 274.767,-192.596"/>
</g>
<!-- 6 -->
<g id="node16" class="node"><title>6</title>
<ellipse fill="none" stroke="black" cx="204.043" cy="-272.473" rx="27" ry="18.3848"/>
<text text-anchor="middle" x="204.043" y="-268.873" font-family="Times Roman,serif" font-size="14.00">6</text>
</g>
<!-- 1&#45;&#45;6 -->
<g id="edge16" class="edge"><title>1&#45;&#45;6</title>
<path fill="none" stroke="black" d="M214.04,-207.04C211.911,-220.976 209.014,-239.938 206.886,-253.862"/>
</g>
<!-- 5&#45;&#45;11 -->
<g id="edge46" class="edge"><title>5&#45;&#45;11</title>
<path fill="none" stroke="black" d="M144.744,-174.312C165.105,-158.074 198.418,-131.509 218.914,-115.163"/>
</g>
<!-- 5&#45;&#45;6 -->
<g id="edge44" class="edge"><title>5&#45;&#45;6</title>
<path fill="none" stroke="black" d="M141.579,-204.194C155.334,-219.229 175.904,-241.714 189.637,-256.726"/>
</g>
<!-- 7&#45;&#45;8 -->
<g id="edge48" class="edge"><title>7&#45;&#45;8</title>
<path fill="none" stroke="black" d="M129.234,-90.1994C140.554,-84.7479 154.307,-78.125 165.663,-72.6561"/>
</g>
<!-- 7&#45;&#45;11 -->
<g id="edge54" class="edge"><title>7&#45;&#45;11</title>
<path fill="none" stroke="black" d="M134.328,-100.844C156.471,-100.844 187.575,-100.844 209.708,-100.844"/>
</g>
<!-- 9 -->
<g id="node23" class="node"><title>9</title>
<ellipse fill="none" stroke="black" cx="28" cy="-132.084" rx="27" ry="18.3848"/>
<text text-anchor="middle" x="28" y="-128.484" font-family="Times Roman,serif" font-size="14.00">9</text>
</g>
<!-- 7&#45;&#45;9 -->
<g id="edge50" class="edge"><title>7&#45;&#45;9</title>
<path fill="none" stroke="black" d="M83.3886,-110.217C73.2822,-114.207 61.5267,-118.848 51.4522,-122.825"/>
</g>
<!-- 10 -->
<g id="node29" class="node"><title>10</title>
<ellipse fill="none" stroke="black" cx="82.2175" cy="-19.5" rx="27" ry="18.3848"/>
<text text-anchor="middle" x="82.2175" y="-15.9" font-family="Times Roman,serif" font-size="14.00">10</text>
</g>
<!-- 7&#45;&#45;10 -->
<g id="edge52" class="edge"><title>7&#45;&#45;10</title>
<path fill="none" stroke="black" d="M101.477,-82.3859C97.4,-69.0734 91.9202,-51.1808 87.8482,-37.8852"/>
</g>
<!-- 8&#45;&#45;9 -->
<g id="edge56" class="edge"><title>8&#45;&#45;9</title>
<path fill="none" stroke="black" d="M165.094,-71.9461C134.674,-85.2902 81.2833,-108.711 50.8846,-122.045"/>
</g>
<!-- 2&#45;&#45;8 -->
<g id="edge24" class="edge"><title>2&#45;&#45;8</title>
<path fill="none" stroke="black" d="M288.022,-178.559C266.165,-153.059 223.675,-103.485 201.787,-77.9493"/>
</g>
<!-- 2&#45;&#45;6 -->
<g id="edge22" class="edge"><title>2&#45;&#45;6</title>
<path fill="none" stroke="black" d="M283.82,-208.853C266.193,-222.91 239.437,-244.248 221.848,-258.274"/>
</g>
<!-- 3 -->
<g id="node19" class="node"><title>3</title>
<ellipse fill="none" stroke="black" cx="366.609" cy="-225.803" rx="27" ry="18.3848"/>
<text text-anchor="middle" x="366.609" y="-222.203" font-family="Times Roman,serif" font-size="14.00">3</text>
</g>
<!-- 2&#45;&#45;3 -->
<g id="edge20" class="edge"><title>2&#45;&#45;3</title>
<path fill="none" stroke="black" d="M324.064,-205.314C330.661,-208.491 337.878,-211.966 344.463,-215.138"/>
</g>
<!-- 2&#45;&#45;9 -->
<g id="edge26" class="edge"><title>2&#45;&#45;9</title>
<path fill="none" stroke="black" d="M275.987,-188.685C223.814,-176.777 106.166,-149.925 53.8837,-137.992"/>
</g>
<!-- 3&#45;&#45;6 -->
<g id="edge30" class="edge"><title>3&#45;&#45;6</title>
<path fill="none" stroke="black" d="M341.565,-232.993C311.015,-241.763 259.678,-256.501 229.116,-265.275"/>
</g>
<!-- 3&#45;&#45;9 -->
<g id="edge32" class="edge"><title>3&#45;&#45;9</title>
<path fill="none" stroke="black" d="M341.435,-218.835C278.748,-201.485 116.202,-156.496 53.3398,-139.097"/>
</g>
<!-- 4 -->
<g id="node25" class="node"><title>4</title>
<ellipse fill="none" stroke="black" cx="82.2175" cy="-244.667" rx="27" ry="18.3848"/>
<text text-anchor="middle" x="82.2175" y="-241.067" font-family="Times Roman,serif" font-size="14.00">4</text>
</g>
<!-- 3&#45;&#45;4 -->
<g id="edge28" class="edge"><title>3&#45;&#45;4</title>
<path fill="none" stroke="black" d="M339.598,-227.594C285.386,-231.191 163.871,-239.251 109.464,-242.86"/>
</g>
<!-- 3&#45;&#45;10 -->
<g id="edge34" class="edge"><title>3&#45;&#45;10</title>
<path fill="none" stroke="black" d="M347.95,-212.267C296.419,-174.886 152.558,-70.5262 100.946,-33.0859"/>
</g>
<!-- 9&#45;&#45;10 -->
<g id="edge58" class="edge"><title>9&#45;&#45;10</title>
<path fill="none" stroke="black" d="M36.4715,-114.493C46.5975,-93.4655 63.448,-58.4753 73.6265,-37.3392"/>
</g>
<!-- 4&#45;&#45;5 -->
<g id="edge36" class="edge"><title>4&#45;&#45;5</title>
<path fill="none" stroke="black" d="M95.2019,-228.386C101.106,-220.982 108.079,-212.238 113.998,-204.816"/>
</g>
<!-- 4&#45;&#45;11 -->
<g id="edge42" class="edge"><title>4&#45;&#45;11</title>
<path fill="none" stroke="black" d="M98.4757,-229.548C128.255,-201.853 191.212,-143.305 220.829,-115.761"/>
</g>
<!-- 4&#45;&#45;6 -->
<g id="edge38" class="edge"><title>4&#45;&#45;6</title>
<path fill="none" stroke="black" d="M108.054,-250.564C128.728,-255.283 157.58,-261.868 178.244,-266.585"/>
</g>
<!-- 4&#45;&#45;10 -->
<g id="edge40" class="edge"><title>4&#45;&#45;10</title>
<path fill="none" stroke="black" d="M82.2175,-225.857C82.2175,-183.367 82.2175,-80.3866 82.2175,-38.0985"/>
</g>
<!-- 10&#45;&#45;11 -->
<g id="edge60" class="edge"><title>10&#45;&#45;11</title>
<path fill="none" stroke="black" d="M103.721,-30.8105C133.102,-46.2643 185.505,-73.8274 215.05,-89.3674"/>
</g>
</g>
</svg>
